<?xml version="1.0" encoding="utf-8"?>
<!-- Generator: Adobe Illustrator 27.3.1, SVG Export Plug-In . SVG Version: 6.00 Build 0)  -->
<svg version="1.1" id="Calque_1" xmlns="http://www.w3.org/2000/svg" xmlns:xlink="http://www.w3.org/1999/xlink" x="0px" y="0px"
	 viewBox="0 0 183.4 30" style="enable-background:new 0 0 183.4 30;" xml:space="preserve">
<style type="text/css">
	.st0{fill:#D3E9F2;}
</style>
<g>
	<g>
		<g>
			<rect y="9.7" class="st0" width="3.9" height="12"/>
			<path class="st0" d="M14.5,9.9h-0.1c0,0-0.1,0-0.2,0c-0.2,0-0.4-0.1-0.7-0.1c-2.3,0-3.7,1.6-4.2,2.3V9.7H5.4v12h3.9v-6.5
				c0,0,2.9-4.1,4.2-1.1c0,2.7,0,7.6,0,7.6h3.9v-8.1C17.4,11.8,16.2,10.3,14.5,9.9z"/>
			<circle class="st0" cx="1.9" cy="6.2" r="1.9"/>
		</g>
	</g>
	<rect y="24" class="st0" width="90.9" height="1.7"/>
	<g>
		<path class="st0" d="M26.5,21.7V8h4.2C31.9,8,33,8.3,34,8.8c0.9,0.5,1.7,1.3,2.2,2.3s0.8,2.1,0.8,3.4v0.6c0,1.3-0.3,2.4-0.8,3.4
			s-1.3,1.8-2.2,2.3c-1,0.5-2,0.8-3.2,0.8h-4.3V21.7z M29.3,10.3v9.1h1.4c1.1,0,1.9-0.4,2.5-1.1s0.9-1.8,0.9-3.1v-0.7
			c0-1.4-0.3-2.4-0.9-3.2c-0.6-0.7-1.4-1.1-2.5-1.1L29.3,10.3L29.3,10.3z"/>
		<path class="st0" d="M38.4,16.5c0-1,0.2-1.9,0.6-2.7c0.4-0.8,0.9-1.4,1.7-1.8c0.7-0.4,1.6-0.6,2.5-0.6c1.4,0,2.5,0.4,3.4,1.3
			c0.9,0.8,1.4,2,1.5,3.4v0.7c0,1.6-0.4,2.8-1.3,3.8c-0.9,0.9-2,1.4-3.5,1.4s-2.6-0.5-3.5-1.4s-1.3-2.2-1.3-3.8v-0.3H38.4z
			 M41.1,16.7c0,1,0.2,1.7,0.5,2.2c0.4,0.5,0.9,0.8,1.6,0.8c0.7,0,1.2-0.3,1.5-0.8c0.4-0.5,0.6-1.3,0.6-2.4c0-0.9-0.2-1.7-0.6-2.2
			c-0.4-0.5-0.9-0.8-1.6-0.8c-0.7,0-1.2,0.3-1.5,0.8C41.3,14.8,41.1,15.6,41.1,16.7z"/>
		<path class="st0" d="M55.4,14.1c-0.4,0-0.7-0.1-1-0.1c-1,0-1.7,0.3-2,1v6.7h-2.7V11.5h2.6l0.1,1.2c0.5-0.9,1.3-1.4,2.3-1.4
			c0.3,0,0.6,0,0.8,0.1L55.4,14.1z"/>
		<path class="st0" d="M56.7,8.9c0-0.4,0.1-0.7,0.4-1c0.3-0.3,0.6-0.4,1.1-0.4s0.8,0.1,1.1,0.4s0.4,0.6,0.4,1s-0.1,0.8-0.4,1
			c-0.3,0.3-0.6,0.4-1.1,0.4s-0.8-0.1-1.1-0.4C56.9,9.6,56.7,9.3,56.7,8.9z M59.6,21.7h-2.7V11.5h2.7V21.7z"/>
		<path class="st0" d="M67.7,21.7c-0.1-0.2-0.2-0.5-0.3-0.9c-0.7,0.7-1.5,1.1-2.6,1.1c-1,0-1.8-0.3-2.5-0.9s-1-1.3-1-2.2
			c0-1.1,0.4-1.9,1.2-2.5s2-0.9,3.5-0.9h1.2v-0.6c0-0.5-0.1-0.8-0.4-1.1c-0.2-0.3-0.6-0.4-1.1-0.4s-0.8,0.1-1.1,0.3
			c-0.3,0.2-0.4,0.5-0.4,0.9h-2.7c0-0.6,0.2-1.1,0.5-1.6c0.4-0.5,0.9-0.9,1.5-1.2c0.7-0.3,1.4-0.4,2.2-0.4c1.3,0,2.2,0.3,3,0.9
			c0.7,0.6,1.1,1.5,1.1,2.7v4.4c0,1,0.1,1.7,0.4,2.2v0.2C70.2,21.7,67.7,21.7,67.7,21.7z M65.5,19.8c0.4,0,0.8-0.1,1.1-0.3
			c0.3-0.2,0.6-0.4,0.8-0.7v-1.7h-1c-1.4,0-2.1,0.5-2.2,1.4v0.2c0,0.3,0.1,0.6,0.4,0.8C64.8,19.7,65.1,19.8,65.5,19.8z"/>
		<path class="st0" d="M74.7,11.5l0.1,1.2c0.7-0.9,1.7-1.4,2.9-1.4c1.1,0,1.9,0.3,2.4,0.9c0.5,0.6,0.8,1.6,0.8,2.8v6.6h-2.7v-6.5
			c0-0.6-0.1-1-0.4-1.3s-0.7-0.4-1.2-0.4c-0.8,0-1.3,0.3-1.7,1v7.2h-2.7V11.5H74.7z"/>
		<path class="st0" d="M87.3,16.5c0-1.6,0.4-2.8,1.1-3.8c0.7-0.9,1.7-1.4,2.9-1.4c1,0,1.8,0.4,2.5,1.1V7.2h2.7v14.4H94l-0.1-1.1
			c-0.7,0.8-1.5,1.3-2.6,1.3c-1.2,0-2.2-0.5-2.9-1.4C87.7,19.5,87.3,18.2,87.3,16.5z M90,16.7c0,1,0.2,1.7,0.5,2.2s0.8,0.8,1.4,0.8
			c0.8,0,1.4-0.4,1.8-1.1v-4c-0.3-0.7-0.9-1.1-1.8-1.1C90.7,13.5,90,14.6,90,16.7z"/>
		<path class="st0" d="M103.3,21.9c-1.5,0-2.7-0.5-3.6-1.4s-1.4-2.1-1.4-3.7v-0.3c0-1,0.2-1.9,0.6-2.7s1-1.4,1.7-1.9
			c0.7-0.4,1.5-0.7,2.5-0.7c1.4,0,2.5,0.4,3.3,1.3c0.8,0.9,1.2,2.1,1.2,3.7v1.1H101c0.1,0.7,0.4,1.2,0.8,1.6s1,0.6,1.7,0.6
			c1,0,1.9-0.4,2.5-1.1l1.3,1.5c-0.4,0.6-1,1-1.7,1.3C104.9,21.7,104.1,21.9,103.3,21.9z M103,13.5c-0.5,0-1,0.2-1.3,0.5
			c-0.3,0.4-0.5,0.9-0.6,1.6h3.8v-0.2c0-0.6-0.2-1.1-0.5-1.4C104,13.7,103.5,13.5,103,13.5z"/>
		<path class="st0" d="M119,18.3L122.1,8h3.1l-4.8,13.7h-2.9L112.8,8h3.1L119,18.3z"/>
		<path class="st0" d="M129.5,21.7h-2.8V8h2.8V21.7z"/>
		<path class="st0" d="M135,19.4h6v2.3h-8.8V8h2.8V19.4z"/>
		<path class="st0" d="M145.4,19.4h6v2.3h-8.8V8h2.8V19.4z"/>
		<path class="st0" d="M161.2,15.7h-5.4v3.7h6.4v2.3H153V8h9.2v2.3h-6.3v3.3h5.4L161.2,15.7L161.2,15.7z"/>
		<path class="st0" d="M166.6,19.4h6v2.3h-8.8V8h2.8V19.4z"/>
		<path class="st0" d="M182.5,15.7H177v3.7h6.4v2.3h-9.2V8h9.2v2.3H177v3.3h5.4v2.1H182.5z"/>
	</g>
</g>
</svg>
