<?xml version="1.0" encoding="utf-8"?>
<!-- Generator: Adobe Illustrator 27.3.1, SVG Export Plug-In . SVG Version: 6.00 Build 0)  -->
<svg version="1.1" id="Calque_1" xmlns="http://www.w3.org/2000/svg" xmlns:xlink="http://www.w3.org/1999/xlink" x="0px" y="0px"
	 viewBox="0 0 183.4 30" style="enable-background:new 0 0 183.4 30;" xml:space="preserve">
<style type="text/css">
	.st0{enable-background:new    ;}
	.st1{fill:#4C5B63;}
</style>
<g>
	<g class="st0">
		<path class="st1" d="M29.6,20V6.6h4.1c1.2,0,2.2,0.3,3.2,0.8s1.7,1.3,2.2,2.3c0.5,1,0.8,2.1,0.8,3.3v0.6c0,1.2-0.3,2.4-0.8,3.3
			s-1.2,1.7-2.2,2.3c-0.9,0.5-2,0.8-3.2,0.8H29.6z M32.4,8.8v9h1.3c1.1,0,1.9-0.4,2.5-1.1s0.9-1.7,0.9-3V13c0-1.4-0.3-2.4-0.8-3.1
			c-0.6-0.7-1.4-1-2.5-1H32.4z"/>
		<path class="st1" d="M41.3,14.9c0-1,0.2-1.9,0.6-2.6c0.4-0.8,0.9-1.4,1.6-1.8S45,9.8,46,9.8c1.3,0,2.4,0.4,3.3,1.2
			c0.8,0.8,1.3,1.9,1.4,3.4l0,0.7c0,1.5-0.4,2.8-1.3,3.7c-0.8,0.9-2,1.4-3.4,1.4c-1.4,0-2.6-0.5-3.4-1.4c-0.8-0.9-1.3-2.2-1.3-3.8
			V14.9z M43.9,15.1c0,0.9,0.2,1.7,0.5,2.2c0.4,0.5,0.9,0.8,1.5,0.8c0.6,0,1.2-0.3,1.5-0.7c0.4-0.5,0.5-1.3,0.5-2.4
			c0-0.9-0.2-1.6-0.5-2.2S46.6,12,46,12c-0.6,0-1.2,0.3-1.5,0.8C44.1,13.3,43.9,14,43.9,15.1z"/>
		<path class="st1" d="M58,12.5c-0.4-0.1-0.7-0.1-1-0.1c-1,0-1.7,0.3-2,1V20h-2.7V10h2.5l0.1,1.2c0.5-0.9,1.3-1.4,2.2-1.4
			c0.3,0,0.6,0,0.8,0.1L58,12.5z"/>
		<path class="st1" d="M59.2,7.4c0-0.4,0.1-0.7,0.4-1s0.6-0.4,1.1-0.4c0.5,0,0.8,0.1,1.1,0.4s0.4,0.6,0.4,1c0,0.4-0.1,0.7-0.4,1
			c-0.3,0.3-0.6,0.4-1.1,0.4s-0.8-0.1-1.1-0.4C59.4,8.2,59.2,7.9,59.2,7.4z M62,20h-2.7V10H62V20z"/>
		<path class="st1" d="M70,20c-0.1-0.2-0.2-0.5-0.3-0.9c-0.6,0.7-1.5,1.1-2.5,1.1c-1,0-1.8-0.3-2.4-0.8c-0.6-0.6-1-1.3-1-2.1
			c0-1.1,0.4-1.9,1.2-2.4c0.8-0.6,1.9-0.8,3.4-0.9h1.2v-0.6c0-0.5-0.1-0.8-0.4-1.1c-0.2-0.3-0.6-0.4-1.1-0.4c-0.5,0-0.8,0.1-1.1,0.3
			c-0.3,0.2-0.4,0.5-0.4,0.9h-2.7c0-0.6,0.2-1.1,0.5-1.6c0.4-0.5,0.9-0.9,1.5-1.2c0.6-0.3,1.4-0.4,2.2-0.4c1.2,0,2.2,0.3,2.9,0.9
			s1.1,1.5,1.1,2.6v4.3c0,0.9,0.1,1.7,0.4,2.1V20C72.7,20,70,20,70,20z M67.8,18.1c0.4,0,0.8-0.1,1.1-0.3s0.6-0.4,0.7-0.7v-1.7h-1
			c-1.3,0-2,0.5-2.1,1.4l0,0.2c0,0.3,0.1,0.6,0.3,0.8C67.1,18,67.4,18.1,67.8,18.1z"/>
		<path class="st1" d="M76.8,10l0.1,1.2c0.7-0.9,1.7-1.3,2.9-1.3c1.1,0,1.8,0.3,2.4,0.9c0.5,0.6,0.8,1.6,0.8,2.8V20h-2.7v-6.4
			c0-0.6-0.1-1-0.4-1.2c-0.2-0.3-0.6-0.4-1.2-0.4c-0.7,0-1.3,0.3-1.7,1v7h-2.7V10L76.8,10C76.8,10,76.8,10,76.8,10z"/>
		<path class="st1" d="M89.2,14.9c0-1.6,0.3-2.8,1-3.7c0.7-0.9,1.6-1.4,2.9-1.4c1,0,1.8,0.4,2.4,1.1V5.8h2.7V20h-2.4l-0.1-1.1
			c-0.7,0.8-1.5,1.2-2.6,1.2c-1.2,0-2.1-0.5-2.8-1.4S89.2,16.6,89.2,14.9z M91.9,15.1c0,0.9,0.2,1.7,0.5,2.1
			c0.3,0.5,0.8,0.7,1.4,0.7c0.8,0,1.4-0.3,1.7-1V13c-0.3-0.7-0.9-1-1.7-1C92.5,12,91.9,13.1,91.9,15.1z"/>
		<path class="st1" d="M104.8,20.2c-1.5,0-2.7-0.5-3.6-1.3c-0.9-0.9-1.4-2.1-1.4-3.6V15c0-1,0.2-1.9,0.6-2.7
			c0.4-0.8,0.9-1.4,1.6-1.8c0.7-0.4,1.5-0.6,2.4-0.6c1.4,0,2.4,0.4,3.2,1.3s1.2,2.1,1.2,3.7v1.1h-6.4c0.1,0.6,0.3,1.2,0.8,1.6
			s1,0.6,1.6,0.6c1,0,1.8-0.4,2.4-1.1l1.3,1.5c-0.4,0.6-0.9,1-1.6,1.3C106.4,20,105.7,20.2,104.8,20.2z M104.5,12
			c-0.5,0-1,0.2-1.3,0.5c-0.3,0.4-0.5,0.9-0.6,1.5h3.7v-0.2c0-0.6-0.2-1-0.5-1.4C105.5,12.2,105.1,12,104.5,12z"/>
		<path class="st1" d="M120.3,16.7l3-10.1h3.1L121.7,20h-2.9l-4.7-13.4h3.1L120.3,16.7z"/>
		<path class="st1" d="M130.6,20h-2.8V6.6h2.8V20z"/>
		<path class="st1" d="M135.9,17.8h5.9V20h-8.6V6.6h2.8L135.9,17.8L135.9,17.8z"/>
		<path class="st1" d="M146.1,17.8h5.9V20h-8.6V6.6h2.8V17.8z"/>
		<path class="st1" d="M161.7,14.2h-5.3v3.6h6.2V20h-9V6.6h9v2.2h-6.2V12h5.3V14.2z"/>
		<path class="st1" d="M167,17.8h5.9V20h-8.6V6.6h2.8V17.8z"/>
		<path class="st1" d="M182.5,14.2h-5.3v3.6h6.2V20h-9V6.6h9v2.2h-6.2V12h5.3V14.2z"/>
	</g>
	<g>
		<g>
			<rect x="0" y="9.3" class="st1" width="4.4" height="13.6"/>
			<path class="st1" d="M16.4,9.5c-0.1,0-0.1,0-0.1,0c-0.1,0-0.1,0-0.2,0c-0.2-0.1-0.5-0.1-0.8-0.1c-2.6,0-4.2,1.9-4.7,2.6V9.3H6.2
				v13.6h4.4v-7.4c0,0,3.3-4.6,4.7-1.2c0,3,0,8.6,0,8.6h4.4v-9.2C19.7,11.7,18.3,10,16.4,9.5z"/>
			<circle class="st1" cx="2.2" cy="5.3" r="2.2"/>
		</g>
	</g>
	<rect x="0" y="25.3" class="st1" width="83.9" height="1.6"/>
</g>
</svg>
