<?xml version="1.0" encoding="utf-8"?>
<!-- Generator: Adobe Illustrator 27.3.1, SVG Export Plug-In . SVG Version: 6.00 Build 0)  -->
<svg version="1.1" id="Calque_1" xmlns="http://www.w3.org/2000/svg" xmlns:xlink="http://www.w3.org/1999/xlink" x="0px" y="0px"
	 viewBox="0 0 183.4 30" style="enable-background:new 0 0 183.4 30;" xml:space="preserve">
<style type="text/css">
	.st0{fill:#D3E9F2;}
</style>
<g>
	<path class="st0" d="M7.6,6.7C3.4,6.7,0,10.1,0,14.3s3.4,7.6,7.6,7.6s7.6-3.4,7.6-7.6S11.7,6.7,7.6,6.7z M1,14.8h2.5
		c0,0.8,0.1,1.7,0.3,2.4H1.6C1.3,16.5,1,15.6,1,14.8z M8,10.4V7.9c0.6,0.2,1.2,0.8,1.7,1.7c0.1,0.3,0.3,0.6,0.4,0.9H8V10.4z
		 M10.4,11.4c0.2,0.8,0.3,1.6,0.3,2.4H8v-2.4H10.4z M7.1,7.9v2.6H5c0.1-0.3,0.2-0.6,0.4-0.9C5.9,8.7,6.5,8.1,7.1,7.9z M7.1,11.4v2.4
		H4.4c0-0.9,0.1-1.7,0.3-2.4H7.1z M3.4,13.8H1c0-0.8,0.3-1.7,0.6-2.4h2.1C3.6,12.2,3.5,13,3.4,13.8z M4.4,14.8h2.7v2.4H4.7
		C4.5,16.5,4.4,15.6,4.4,14.8z M7.1,18.2v2.6c-0.6-0.2-1.2-0.8-1.7-1.7c-0.1-0.3-0.3-0.6-0.4-0.9H7.1z M8,20.7v-2.6h2.1
		C10,18.5,9.9,18.8,9.7,19C9.3,19.9,8.7,20.5,8,20.7z M8,17.2v-2.4h2.7c0,0.9-0.1,1.7-0.3,2.4H8z M11.7,14.8h2.5
		c-0.1,0.9-0.3,1.7-0.7,2.4h-2.1C11.5,16.4,11.7,15.6,11.7,14.8L11.7,14.8z M11.7,13.8c0-0.8-0.1-1.7-0.3-2.4h2.1
		c0.4,0.7,0.6,1.6,0.7,2.4C14.2,13.8,11.7,13.8,11.7,13.8z M12.9,10.4h-1.8C11,10,10.8,9.5,10.6,9.1s-0.4-0.7-0.7-1
		C11.1,8.6,12.2,9.4,12.9,10.4z M5.2,8.1C5,8.4,4.8,8.7,4.6,9.1C4.4,9.5,4.2,10,4,10.4H2.2C2.9,9.4,4,8.6,5.2,8.1z M2.2,18.2H4
		c0.2,0.5,0.3,0.9,0.5,1.3s0.4,0.7,0.7,1C4,20,2.9,19.2,2.2,18.2L2.2,18.2z M9.9,20.5c0.2-0.3,0.5-0.6,0.7-1s0.4-0.8,0.5-1.3h1.8
		C12.2,19.2,11.1,20,9.9,20.5L9.9,20.5z"/>
	<rect y="25.4" class="st0" width="93.8" height="1.8"/>
	<g>
		<path class="st0" d="M23.5,15.3c0-1.7,0.4-3.1,1.2-4.2s1.8-1.5,3.2-1.5c1.1,0,2,0.4,2.7,1.2V5.1h3v15.8h-2.7l-0.1-1.2
			c-0.7,0.9-1.7,1.4-2.9,1.4c-1.3,0-2.4-0.5-3.2-1.6C23.9,18.6,23.5,17.1,23.5,15.3z M26.4,15.5c0,1,0.2,1.9,0.5,2.4
			c0.4,0.6,0.9,0.8,1.6,0.8c0.9,0,1.6-0.4,1.9-1.2v-4.4c-0.4-0.8-1-1.2-1.9-1.2C27.2,12,26.4,13.2,26.4,15.5z"/>
		<path class="st0" d="M35.4,15.3c0-1.1,0.2-2.1,0.6-3c0.4-0.9,1-1.5,1.8-2s1.7-0.7,2.8-0.7c1.5,0,2.7,0.5,3.7,1.4s1.5,2.2,1.6,3.8
			v0.8c0,1.7-0.5,3.1-1.4,4.1s-2.2,1.6-3.8,1.6s-2.9-0.5-3.9-1.5s-1.4-2.4-1.4-4.2C35.4,15.6,35.4,15.3,35.4,15.3z M38.4,15.5
			c0,1.1,0.2,1.9,0.6,2.4c0.4,0.6,1,0.8,1.7,0.8s1.3-0.3,1.7-0.8c0.4-0.6,0.6-1.4,0.6-2.7c0-1-0.2-1.8-0.6-2.4s-1-0.9-1.7-0.9
			s-1.3,0.3-1.7,0.9C38.5,13.4,38.4,14.3,38.4,15.5z"/>
		<path class="st0" d="M54.1,12.6c-0.4-0.1-0.8-0.1-1.1-0.1c-1.1,0-1.9,0.4-2.2,1.1v7.3h-3V9.8h2.8l0.1,1.3c0.6-1,1.4-1.5,2.5-1.5
			c0.3,0,0.6,0,0.9,0.1V12.6z"/>
		<path class="st0" d="M55.5,6.9c0-0.4,0.1-0.8,0.4-1.1c0.3-0.3,0.7-0.4,1.2-0.4s0.9,0.1,1.2,0.4s0.5,0.7,0.5,1.1
			c0,0.5-0.2,0.8-0.5,1.1c-0.3,0.3-0.7,0.4-1.2,0.4S56.2,8.3,55.9,8C55.6,7.7,55.5,7.3,55.5,6.9z M58.6,20.9h-3V9.8h3V20.9z"/>
		<path class="st0" d="M67.6,20.9c-0.1-0.3-0.2-0.6-0.3-1c-0.7,0.8-1.7,1.2-2.8,1.2c-1.1,0-2-0.3-2.7-0.9s-1.1-1.4-1.1-2.4
			c0-1.2,0.4-2.1,1.3-2.7c0.9-0.6,2.1-1,3.8-1h1.4v-0.6c0-0.5-0.1-0.9-0.4-1.2s-0.7-0.5-1.3-0.5c-0.5,0-0.9,0.1-1.2,0.4
			c-0.3,0.2-0.4,0.6-0.4,1h-3c0-0.6,0.2-1.2,0.6-1.8c0.4-0.6,1-1,1.7-1.3s1.5-0.5,2.5-0.5c1.4,0,2.5,0.3,3.3,1s1.2,1.7,1.2,2.9v4.8
			c0,1.1,0.2,1.9,0.4,2.4v0.2H67.6z M65.1,18.9c0.4,0,0.8-0.1,1.2-0.3c0.4-0.2,0.6-0.5,0.8-0.8v-1.9H66c-1.5,0-2.3,0.5-2.4,1.5v0.2
			c0,0.4,0.1,0.7,0.4,0.9S64.6,18.9,65.1,18.9z"/>
		<path class="st0" d="M75.2,9.8l0.1,1.3c0.8-1,1.9-1.5,3.2-1.5c1.2,0,2.1,0.3,2.6,1c0.6,0.7,0.9,1.7,0.9,3.1v7.2h-3v-7.1
			c0-0.6-0.1-1.1-0.4-1.4S77.9,12,77.2,12c-0.8,0-1.5,0.4-1.9,1.1V21h-3V9.8H75.2z"/>
		<path class="st0" d="M83.8,15.3c0-1.7,0.4-3.1,1.2-4.2s1.8-1.5,3.2-1.5c1.1,0,2,0.4,2.7,1.2V5.1h3v15.8h-2.7L91,19.8
			c-0.7,0.9-1.7,1.4-2.9,1.4c-1.3,0-2.4-0.5-3.2-1.6S83.8,17.1,83.8,15.3z M86.8,15.5c0,1,0.2,1.9,0.5,2.4c0.4,0.6,0.9,0.8,1.6,0.8
			c0.9,0,1.6-0.4,1.9-1.2v-4.4c-0.4-0.8-1-1.2-1.9-1.2C87.5,12,86.8,13.2,86.8,15.5z"/>
		<path class="st0" d="M101.3,21.1c-1.6,0-3-0.5-4-1.5s-1.5-2.3-1.5-4v-0.3c0-1.1,0.2-2.1,0.6-3c0.4-0.9,1-1.6,1.8-2
			c0.8-0.5,1.7-0.7,2.7-0.7c1.5,0,2.7,0.5,3.6,1.4c0.9,1,1.3,2.3,1.3,4.1v1.2h-7.1c0.1,0.7,0.4,1.3,0.9,1.8s1.1,0.7,1.8,0.7
			c1.1,0,2-0.4,2.7-1.2l1.5,1.6c-0.4,0.6-1.1,1.1-1.8,1.5C103.1,21,102.2,21.1,101.3,21.1z M101,12c-0.6,0-1.1,0.2-1.4,0.6
			c-0.4,0.4-0.6,1-0.7,1.7h4.1v-0.2c0-0.7-0.2-1.2-0.5-1.5C102.1,12.2,101.6,12,101,12z"/>
		<path class="st0" d="M111.6,17.3l2.1-7.5h3.1L113,20.9h-2.8l-3.8-11.2h3.1L111.6,17.3z"/>
		<path class="st0" d="M118.1,6.9c0-0.4,0.1-0.8,0.4-1.1c0.3-0.3,0.7-0.4,1.2-0.4s0.9,0.1,1.2,0.4c0.3,0.3,0.5,0.7,0.5,1.1
			c0,0.5-0.2,0.8-0.5,1.1c-0.3,0.3-0.7,0.4-1.2,0.4s-0.9-0.1-1.2-0.4C118.3,7.7,118.1,7.3,118.1,6.9z M121.3,20.9h-3V9.8h3V20.9z"/>
		<path class="st0" d="M126.9,20.9h-3V5.1h3V20.9z"/>
		<path class="st0" d="M132.5,20.9h-3V5.1h3V20.9z"/>
		<path class="st0" d="M140.1,21.1c-1.6,0-3-0.5-4-1.5s-1.5-2.3-1.5-4v-0.3c0-1.1,0.2-2.1,0.6-3c0.4-0.9,1-1.6,1.8-2
			c0.8-0.5,1.7-0.7,2.7-0.7c1.5,0,2.7,0.5,3.6,1.4c0.9,1,1.3,2.3,1.3,4.1v1.2h-7.1c0.1,0.7,0.4,1.3,0.9,1.8s1.1,0.7,1.8,0.7
			c1.1,0,2-0.4,2.7-1.2l1.5,1.6c-0.4,0.6-1.1,1.1-1.8,1.5C141.8,21,141,21.1,140.1,21.1z M139.7,12c-0.6,0-1.1,0.2-1.4,0.6
			c-0.4,0.4-0.6,1-0.7,1.7h4.1v-0.2c0-0.7-0.2-1.2-0.5-1.5S140.4,12,139.7,12z"/>
		<path class="st0" d="M149.5,20.9h-3V5.1h3V20.9z"/>
		<path class="st0" d="M157.1,21.1c-1.6,0-3-0.5-4-1.5s-1.5-2.3-1.5-4v-0.3c0-1.1,0.2-2.1,0.6-3c0.4-0.9,1-1.6,1.8-2
			c0.8-0.5,1.7-0.7,2.7-0.7c1.5,0,2.7,0.5,3.6,1.4c0.9,1,1.3,2.3,1.3,4.1v1.2h-7.1c0.1,0.7,0.4,1.3,0.9,1.8s1.1,0.7,1.8,0.7
			c1.1,0,2-0.4,2.7-1.2l1.5,1.6c-0.4,0.6-1.1,1.1-1.8,1.5C158.9,21,158,21.1,157.1,21.1z M156.8,12c-0.6,0-1.1,0.2-1.4,0.6
			c-0.4,0.4-0.6,1-0.7,1.7h4.1v-0.2c0-0.7-0.2-1.2-0.5-1.5C157.9,12.2,157.4,12,156.8,12z"/>
		<path class="st0" d="M163.5,19.5c0-0.5,0.2-0.9,0.5-1.2c0.3-0.3,0.7-0.4,1.2-0.4s0.9,0.1,1.2,0.4s0.5,0.7,0.5,1.2
			s-0.2,0.8-0.5,1.1c-0.3,0.3-0.7,0.4-1.2,0.4s-0.9-0.1-1.2-0.4C163.7,20.3,163.5,19.9,163.5,19.5z"/>
		<path class="st0" d="M170.3,20.9v-9h-1.7V9.8h1.7v-1c0-1.3,0.4-2.2,1.1-2.9s1.7-1,3-1c0.4,0,0.9,0.1,1.5,0.2v2.3
			c-0.2-0.1-0.6-0.1-0.9-0.1c-1.1,0-1.7,0.5-1.7,1.6v0.9h2.2V12h-2.2v9h-3V20.9z"/>
		<path class="st0" d="M183.4,12.6c-0.4-0.1-0.8-0.1-1.1-0.1c-1.1,0-1.9,0.4-2.2,1.1v7.3h-3V9.8h2.8l0.1,1.3c0.6-1,1.4-1.5,2.5-1.5
			c0.3,0,0.6,0,0.9,0.1V12.6z"/>
	</g>
</g>
</svg>
