<?xml version="1.0" encoding="utf-8"?>
<!-- Generator: Adobe Illustrator 27.3.1, SVG Export Plug-In . SVG Version: 6.00 Build 0)  -->
<svg version="1.1" id="Capa_1" xmlns="http://www.w3.org/2000/svg" xmlns:xlink="http://www.w3.org/1999/xlink" x="0px" y="0px"
	 viewBox="0 0 512 512" style="enable-background:new 0 0 512 512;" xml:space="preserve">
<style type="text/css">
	.st0{fill:#ECEFF1;}
	.st1{fill:#388E3C;}
	.st2{fill:#2E7D32;}
	.st3{fill:#FAFAFA;}
</style>
<g>
	<path class="st0" d="M496,432H272c-8.8,0-16-7.2-16-16s0-311.2,0-320s7.2-16,16-16h224c8.8,0,16,7.2,16,16v320
		C512,424.8,504.8,432,496,432z"/>
	<g>
		<path class="st1" d="M336,176h-64c-8.8,0-16-7.2-16-16s7.2-16,16-16h64c8.8,0,16,7.2,16,16S344.8,176,336,176z"/>
		<path class="st1" d="M336,240h-64c-8.8,0-16-7.2-16-16s7.2-16,16-16h64c8.8,0,16,7.2,16,16S344.8,240,336,240z"/>
		<path class="st1" d="M336,304h-64c-8.8,0-16-7.2-16-16s7.2-16,16-16h64c8.8,0,16,7.2,16,16S344.8,304,336,304z"/>
		<path class="st1" d="M336,368h-64c-8.8,0-16-7.2-16-16s7.2-16,16-16h64c8.8,0,16,7.2,16,16S344.8,368,336,368z"/>
		<path class="st1" d="M432,176h-32c-8.8,0-16-7.2-16-16s7.2-16,16-16h32c8.8,0,16,7.2,16,16S440.8,176,432,176z"/>
		<path class="st1" d="M432,240h-32c-8.8,0-16-7.2-16-16s7.2-16,16-16h32c8.8,0,16,7.2,16,16S440.8,240,432,240z"/>
		<path class="st1" d="M432,304h-32c-8.8,0-16-7.2-16-16s7.2-16,16-16h32c8.8,0,16,7.2,16,16S440.8,304,432,304z"/>
		<path class="st1" d="M432,368h-32c-8.8,0-16-7.2-16-16s7.2-16,16-16h32c8.8,0,16,7.2,16,16S440.8,368,432,368z"/>
	</g>
	<path class="st2" d="M282.2,19.7c-3.6-3-8.5-4.4-13.2-3.4l-256,48C5.5,65.7,0,72.3,0,80v352c0,7.7,5.5,14.3,13.1,15.7l256,48
		c1,0.2,2,0.3,2.9,0.3c3.7,0,7.3-1.3,10.2-3.7c3.7-3,5.8-7.6,5.8-12.3V32C288,27.2,285.9,22.7,282.2,19.7z"/>
	<path class="st3" d="M220,309.5l-50.6-57.8l51.2-65.8c5.4-7,4.2-17-2.8-22.5s-17-4.2-22.5,2.8L148,227.1L108,181.5
		c-5.9-6.7-16-7.3-22.6-1.5c-6.7,5.8-7.3,15.9-1.5,22.6l44,50.3l-44.6,57.3c-5.4,7-4.2,17,2.8,22.5c2.9,2.3,6.4,3.4,9.9,3.4
		c4.8,0,9.5-2.1,12.6-6.2l40.8-52.5l46.5,53.2c3.2,3.6,7.6,5.5,12,5.5c3.7,0,7.5-1.3,10.5-4C225.2,326.2,225.9,316.1,220,309.5z"/>
</g>
</svg>
