<?xml version="1.0" encoding="utf-8"?>
<!-- Generator: Adobe Illustrator 26.1.0, SVG Export Plug-In . SVG Version: 6.00 Build 0)  -->
<svg version="1.0" id="Calque_1" xmlns="http://www.w3.org/2000/svg" xmlns:xlink="http://www.w3.org/1999/xlink" x="0px" y="0px"
	 viewBox="0 0 224 30" style="enable-background:new 0 0 224 30;" xml:space="preserve">
<g id="Gmail" transform="translate(-209 -845)">
	<path id="Rectangle_14" style="fill:#FFFFFF;" d="M214,845h214c2.76,0,5,2.24,5,5v20c0,2.76-2.24,5-5,5H214c-2.76,0-5-2.24-5-5v-20
		C209,847.24,211.24,845,214,845z"/>
	<g style="enable-background:new    ;">
		<path style="fill:#2A2A2A;" d="M246.14,867v-12.8h3.94c1.12,0,2.13,0.25,3.02,0.76c0.89,0.51,1.58,1.23,2.08,2.16
			c0.5,0.94,0.75,2,0.75,3.19v0.59c0,1.19-0.24,2.25-0.73,3.17s-1.18,1.64-2.07,2.15s-1.9,0.77-3.01,0.77H246.14z M248.78,856.34
			v8.54h1.27c1.03,0,1.82-0.34,2.36-1.01s0.82-1.64,0.83-2.89v-0.68c0-1.3-0.27-2.29-0.81-2.96s-1.33-1.01-2.36-1.01H248.78z"/>
		<path style="fill:#2A2A2A;" d="M257.28,862.17c0-1.48,0.33-2.66,1-3.54s1.57-1.32,2.73-1.32c0.93,0,1.69,0.35,2.29,1.04v-4.85
			h2.55V867h-2.29l-0.12-1.01c-0.63,0.79-1.45,1.19-2.44,1.19c-1.12,0-2.02-0.44-2.69-1.32S257.28,863.75,257.28,862.17z
			 M259.82,862.36c0,0.89,0.16,1.58,0.47,2.05s0.76,0.71,1.35,0.71c0.79,0,1.34-0.33,1.66-1v-3.76c-0.32-0.66-0.86-1-1.64-1
			C260.43,859.38,259.82,860.38,259.82,862.36z"/>
		<path style="fill:#2A2A2A;" d="M272.19,867.18c-1.39,0-2.53-0.43-3.41-1.28s-1.31-2-1.31-3.42v-0.25c0-0.96,0.18-1.81,0.55-2.56
			s0.89-1.33,1.57-1.74s1.45-0.61,2.32-0.61c1.3,0,2.32,0.41,3.07,1.23s1.12,1.98,1.12,3.49v1.04h-6.06
			c0.08,0.62,0.33,1.12,0.74,1.49s0.94,0.56,1.57,0.56c0.98,0,1.74-0.35,2.29-1.06l1.25,1.4c-0.38,0.54-0.9,0.96-1.55,1.26
			C273.71,867.02,272.98,867.18,272.19,867.18z M271.9,859.36c-0.5,0-0.91,0.17-1.23,0.51c-0.31,0.34-0.51,0.83-0.6,1.47h3.53v-0.2
			c-0.01-0.57-0.16-1-0.46-1.31C272.86,859.52,272.44,859.36,271.9,859.36z"/>
		<path style="fill:#2A2A2A;" d="M280.99,863.9l1.77-6.41h2.65L282.2,867h-2.43l-3.21-9.51h2.65L280.99,863.9z"/>
		<path style="fill:#2A2A2A;" d="M286.51,855.03c0-0.38,0.13-0.69,0.38-0.94s0.6-0.37,1.04-0.37c0.43,0,0.78,0.12,1.04,0.37
			s0.39,0.56,0.39,0.94c0,0.39-0.13,0.7-0.39,0.95s-0.6,0.37-1.03,0.37s-0.77-0.12-1.03-0.37S286.51,855.42,286.51,855.03z
			 M289.21,867h-2.55v-9.51h2.55V867z"/>
		<path style="fill:#2A2A2A;" d="M293.98,867h-2.55v-13.5h2.55V867z"/>
		<path style="fill:#2A2A2A;" d="M298.75,867h-2.55v-13.5h2.55V867z"/>
		<path style="fill:#2A2A2A;" d="M305.22,867.18c-1.39,0-2.53-0.43-3.41-1.28s-1.31-2-1.31-3.42v-0.25c0-0.96,0.18-1.81,0.55-2.56
			s0.89-1.33,1.57-1.74s1.45-0.61,2.32-0.61c1.3,0,2.32,0.41,3.07,1.23s1.12,1.98,1.12,3.49v1.04h-6.06
			c0.08,0.62,0.33,1.12,0.74,1.49s0.94,0.56,1.57,0.56c0.98,0,1.74-0.35,2.29-1.06l1.25,1.4c-0.38,0.54-0.9,0.96-1.55,1.26
			C306.73,867.02,306.01,867.18,305.22,867.18z M304.93,859.36c-0.5,0-0.91,0.17-1.23,0.51c-0.31,0.34-0.51,0.83-0.6,1.47h3.53v-0.2
			c-0.01-0.57-0.16-1-0.46-1.31C305.89,859.52,305.47,859.36,304.93,859.36z"/>
		<path style="fill:#2A2A2A;" d="M313.26,867h-2.55v-13.5h2.55V867z"/>
		<path style="fill:#2A2A2A;" d="M319.72,867.18c-1.39,0-2.53-0.43-3.41-1.28s-1.31-2-1.31-3.42v-0.25c0-0.96,0.18-1.81,0.55-2.56
			s0.89-1.33,1.57-1.74s1.45-0.61,2.32-0.61c1.3,0,2.32,0.41,3.07,1.23s1.12,1.98,1.12,3.49v1.04h-6.06
			c0.08,0.62,0.33,1.12,0.74,1.49s0.94,0.56,1.57,0.56c0.98,0,1.74-0.35,2.29-1.06l1.25,1.4c-0.38,0.54-0.9,0.96-1.55,1.26
			C321.24,867.02,320.52,867.18,319.72,867.18z M319.43,859.36c-0.5,0-0.91,0.17-1.23,0.51c-0.31,0.34-0.51,0.83-0.6,1.47h3.53v-0.2
			c-0.01-0.57-0.16-1-0.46-1.31C320.39,859.52,319.97,859.36,319.43,859.36z"/>
		<path style="fill:#2A2A2A;" d="M339.47,862.29c-0.06,1.5-0.44,2.69-1.11,3.57c-0.68,0.88-1.59,1.32-2.73,1.32
			c-0.5,0-0.94-0.11-1.31-0.33s-0.64-0.53-0.83-0.93c-0.59,0.82-1.35,1.23-2.29,1.23c-0.86,0-1.52-0.36-1.99-1.08
			s-0.64-1.67-0.53-2.86c0.11-0.97,0.35-1.83,0.73-2.58c0.38-0.75,0.87-1.33,1.45-1.74s1.22-0.61,1.9-0.61
			c0.84,0,1.55,0.19,2.14,0.58l0.55,0.38l-0.45,5.08c-0.06,0.46-0.01,0.82,0.15,1.06s0.42,0.37,0.77,0.37
			c0.54,0,0.99-0.31,1.35-0.95c0.36-0.63,0.56-1.45,0.6-2.47c0.1-2.04-0.31-3.62-1.23-4.72c-0.92-1.1-2.29-1.65-4.1-1.65
			c-1.13,0-2.14,0.29-3.02,0.86s-1.58,1.39-2.09,2.45s-0.8,2.27-0.86,3.63c-0.09,2.07,0.32,3.68,1.25,4.81
			c0.93,1.13,2.31,1.7,4.16,1.7c0.49,0,1-0.05,1.53-0.16c0.53-0.11,0.99-0.25,1.38-0.44l0.33,1.35c-0.36,0.23-0.84,0.42-1.45,0.57
			s-1.22,0.22-1.83,0.22c-1.55,0-2.87-0.31-3.96-0.94c-1.09-0.62-1.9-1.54-2.44-2.76c-0.54-1.21-0.77-2.67-0.7-4.35
			c0.07-1.62,0.44-3.07,1.11-4.35s1.58-2.27,2.73-2.97s2.45-1.05,3.9-1.05c1.47,0,2.74,0.32,3.8,0.95s1.85,1.53,2.38,2.7
			S339.54,860.74,339.47,862.29z M330.64,863.22c-0.06,0.77,0,1.36,0.2,1.76c0.2,0.4,0.52,0.6,0.97,0.6c0.29,0,0.56-0.13,0.82-0.38
			s0.47-0.62,0.64-1.09l0.37-4.16c-0.23-0.08-0.46-0.11-0.7-0.11c-0.67,0-1.2,0.29-1.57,0.86S330.75,862.12,330.64,863.22z"/>
		<path style="fill:#2A2A2A;" d="M351.48,865.38c-0.47,0.57-1.15,1.01-2.01,1.32c-0.87,0.31-1.83,0.47-2.88,0.47
			c-1.11,0-2.08-0.24-2.91-0.72c-0.83-0.48-1.48-1.19-1.93-2.11s-0.69-2-0.7-3.24v-0.87c0-1.28,0.22-2.38,0.65-3.32
			c0.43-0.93,1.05-1.65,1.86-2.14c0.81-0.49,1.76-0.74,2.85-0.74c1.52,0,2.7,0.36,3.56,1.09s1.36,1.78,1.52,3.16h-2.57
			c-0.12-0.73-0.38-1.27-0.78-1.61s-0.95-0.51-1.66-0.51c-0.9,0-1.58,0.34-2.05,1.01s-0.71,1.68-0.71,3.01v0.82
			c0,1.34,0.25,2.36,0.76,3.04s1.26,1.03,2.24,1.03c0.99,0,1.7-0.21,2.12-0.63v-2.21h-2.4v-1.94h5.04V865.38z"/>
		<path style="fill:#2A2A2A;" d="M355.83,857.49l0.08,1.06c0.67-0.83,1.58-1.24,2.73-1.24c1.22,0,2.07,0.48,2.52,1.45
			c0.67-0.97,1.62-1.45,2.86-1.45c1.03,0,1.8,0.3,2.3,0.9c0.5,0.6,0.76,1.5,0.76,2.71V867h-2.55v-6.06c0-0.54-0.11-0.93-0.32-1.18
			s-0.58-0.37-1.12-0.37c-0.76,0-1.29,0.36-1.58,1.09l0.01,6.53h-2.54v-6.06c0-0.55-0.11-0.95-0.33-1.2s-0.59-0.37-1.11-0.37
			c-0.72,0-1.24,0.3-1.56,0.9V867h-2.54v-9.51H355.83z"/>
		<path style="fill:#2A2A2A;" d="M374.54,867c-0.12-0.23-0.2-0.51-0.25-0.85c-0.62,0.69-1.42,1.03-2.4,1.03
			c-0.93,0-1.7-0.27-2.32-0.81s-0.92-1.22-0.92-2.04c0-1.01,0.37-1.78,1.12-2.32s1.83-0.81,3.24-0.82h1.17v-0.54
			c0-0.44-0.11-0.79-0.34-1.05s-0.58-0.4-1.07-0.4c-0.43,0-0.76,0.1-1.01,0.31s-0.36,0.49-0.36,0.84h-2.54
			c0-0.55,0.17-1.06,0.51-1.53s0.82-0.84,1.44-1.1s1.32-0.4,2.09-0.4c1.17,0,2.1,0.29,2.79,0.88c0.69,0.59,1.03,1.42,1.03,2.48v4.12
			c0.01,0.9,0.13,1.58,0.38,2.05V867H374.54z M372.44,865.23c0.38,0,0.72-0.08,1.04-0.25c0.32-0.17,0.55-0.39,0.7-0.67v-1.63h-0.95
			c-1.27,0-1.95,0.44-2.03,1.32l-0.01,0.15c0,0.32,0.11,0.58,0.33,0.78S372.05,865.23,372.44,865.23z"/>
		<path style="fill:#2A2A2A;" d="M378.66,855.03c0-0.38,0.13-0.69,0.38-0.94s0.6-0.37,1.04-0.37c0.43,0,0.78,0.12,1.04,0.37
			s0.39,0.56,0.39,0.94c0,0.39-0.13,0.7-0.39,0.95s-0.6,0.37-1.03,0.37s-0.77-0.12-1.03-0.37S378.66,855.42,378.66,855.03z
			 M381.36,867h-2.55v-9.51h2.55V867z"/>
		<path style="fill:#2A2A2A;" d="M386.13,867h-2.55v-13.5h2.55V867z"/>
		<path style="fill:#2A2A2A;" d="M388.36,865.75c0-0.4,0.14-0.73,0.41-0.98s0.61-0.38,1.02-0.38c0.42,0,0.76,0.13,1.03,0.38
			s0.41,0.58,0.41,0.98c0,0.4-0.13,0.72-0.4,0.97c-0.27,0.25-0.62,0.37-1.04,0.37c-0.42,0-0.76-0.12-1.03-0.37
			C388.49,866.47,388.36,866.15,388.36,865.75z"/>
		<path style="fill:#2A2A2A;" d="M397.41,865.13c0.47,0,0.85-0.13,1.14-0.39s0.45-0.6,0.46-1.03h2.38
			c-0.01,0.64-0.18,1.23-0.53,1.77c-0.35,0.54-0.82,0.95-1.42,1.25c-0.6,0.29-1.26,0.44-1.99,0.44c-1.36,0-2.43-0.43-3.22-1.3
			c-0.79-0.86-1.18-2.06-1.18-3.58v-0.17c0-1.46,0.39-2.63,1.17-3.51s1.85-1.31,3.21-1.31c1.19,0,2.14,0.34,2.86,1.02
			c0.72,0.68,1.08,1.58,1.09,2.7h-2.38c-0.01-0.5-0.16-0.9-0.46-1.21s-0.68-0.46-1.16-0.46c-0.59,0-1.04,0.22-1.34,0.65
			c-0.3,0.43-0.45,1.13-0.45,2.1v0.26c0,0.98,0.15,1.68,0.45,2.11S396.8,865.13,397.41,865.13z"/>
		<path style="fill:#2A2A2A;" d="M402.45,862.16c0-0.94,0.18-1.78,0.54-2.52s0.89-1.31,1.57-1.71s1.48-0.61,2.38-0.61
			c1.28,0,2.33,0.39,3.14,1.18s1.26,1.85,1.36,3.2l0.02,0.65c0,1.46-0.41,2.63-1.22,3.51s-1.91,1.32-3.28,1.32s-2.47-0.44-3.28-1.32
			s-1.23-2.07-1.23-3.59V862.16z M404.99,862.34c0,0.9,0.17,1.59,0.51,2.07c0.34,0.48,0.83,0.72,1.46,0.72
			c0.62,0,1.1-0.24,1.44-0.71c0.35-0.47,0.52-1.23,0.52-2.27c0-0.89-0.17-1.57-0.52-2.06s-0.83-0.73-1.46-0.73
			c-0.62,0-1.1,0.24-1.44,0.73C405.16,860.57,404.99,861.32,404.99,862.34z"/>
		<path style="fill:#2A2A2A;" d="M415.4,857.49l0.08,1.06c0.67-0.83,1.58-1.24,2.73-1.24c1.22,0,2.07,0.48,2.52,1.45
			c0.67-0.97,1.62-1.45,2.86-1.45c1.03,0,1.8,0.3,2.3,0.9c0.5,0.6,0.76,1.5,0.76,2.71V867h-2.55v-6.06c0-0.54-0.11-0.93-0.32-1.18
			s-0.58-0.37-1.12-0.37c-0.76,0-1.29,0.36-1.58,1.09l0.01,6.53h-2.54v-6.06c0-0.55-0.11-0.95-0.33-1.2s-0.59-0.37-1.11-0.37
			c-0.72,0-1.24,0.3-1.56,0.9V867h-2.54v-9.51H415.4z"/>
	</g>
	<g>
		<defs>
			<rect id="SVGID_1_" x="214" y="847" width="26" height="26"/>
		</defs>
		<clipPath id="SVGID_00000130625703447991952530000002790491327555875724_">
			<use xlink:href="#SVGID_1_"  style="overflow:visible;"/>
		</clipPath>
		
			<g id="Groupe_de_masques_4" transform="translate(35 163)" style="clip-path:url(#SVGID_00000130625703447991952530000002790491327555875724_);">
			<g id="logo-gmail" transform="translate(179 686.6)">
				<g id="gmail-2" transform="translate(0 0)">
					<path id="Tracé_4" style="fill:#2A2A2A;" d="M23.4,0H2.6C1.17,0,0,1.17,0,2.6v15.6c0,1.43,1.17,2.6,2.6,2.6h20.8
						c1.43,0,2.6-1.17,2.6-2.6V2.6C26,1.17,24.83,0,23.4,0z M23.4,18.2h-2.6V6.76L13,11.7L5.2,6.76V18.2H2.6V2.6h1.56L13,8.06
						l8.84-5.46h1.56V18.2z"/>
				</g>
			</g>
		</g>
	</g>
</g>
</svg>
