<?xml version="1.0" encoding="utf-8"?>
<!-- Generator: Adobe Illustrator 26.1.0, SVG Export Plug-In . SVG Version: 6.00 Build 0)  -->
<svg version="1.0" id="Calque_1" xmlns="http://www.w3.org/2000/svg" xmlns:xlink="http://www.w3.org/1999/xlink" x="0px" y="0px"
	 viewBox="0 0 136 30" style="enable-background:new 0 0 136 30;" xml:space="preserve">
<g id="Twitch" transform="translate(-209 -845)">
	<path id="Rectangle_14" style="fill:#FFFFFF;" d="M214,845h126c2.76,0,5,2.24,5,5v20c0,2.76-2.24,5-5,5H214c-2.76,0-5-2.24-5-5v-20
		C209,847.24,211.24,845,214,845z"/>
	<g style="enable-background:new    ;">
		<path style="fill:#2A2A2A;" d="M247.78,864.88h5.6V867h-8.24v-12.8h2.64V864.88z"/>
		<path style="fill:#2A2A2A;" d="M260.23,867c-0.12-0.23-0.2-0.51-0.25-0.85c-0.62,0.69-1.42,1.03-2.4,1.03
			c-0.93,0-1.7-0.27-2.32-0.81s-0.92-1.22-0.92-2.04c0-1.01,0.37-1.78,1.12-2.32s1.83-0.81,3.24-0.82h1.17v-0.54
			c0-0.44-0.11-0.79-0.34-1.05s-0.58-0.4-1.07-0.4c-0.43,0-0.76,0.1-1.01,0.31s-0.36,0.49-0.36,0.84h-2.54
			c0-0.55,0.17-1.06,0.51-1.53s0.82-0.84,1.44-1.1s1.32-0.4,2.09-0.4c1.17,0,2.1,0.29,2.79,0.88c0.69,0.59,1.03,1.42,1.03,2.48v4.12
			c0.01,0.9,0.13,1.58,0.38,2.05V867H260.23z M258.13,865.23c0.38,0,0.72-0.08,1.04-0.25c0.32-0.17,0.55-0.39,0.7-0.67v-1.63h-0.95
			c-1.27,0-1.95,0.44-2.03,1.32l-0.01,0.15c0,0.32,0.11,0.58,0.33,0.78S257.75,865.23,258.13,865.23z"/>
		<path style="fill:#2A2A2A;" d="M267.99,854.2l3.29,9.28l3.27-9.28H278V867h-2.65v-3.5l0.26-6.04l-3.45,9.54h-1.81l-3.45-9.53
			l0.26,6.03v3.5h-2.64v-12.8H267.99z"/>
		<path style="fill:#2A2A2A;" d="M288.65,861.71c0,1.77-0.37,3.12-1.1,4.06s-1.8,1.41-3.22,1.41c-1.39,0-2.46-0.46-3.2-1.38
			s-1.12-2.24-1.13-3.96v-2.36c0-1.79,0.37-3.14,1.11-4.07s1.81-1.39,3.2-1.39s2.46,0.46,3.2,1.38c0.74,0.92,1.12,2.23,1.13,3.95
			V861.71z M286.11,859.12c0-1.06-0.15-1.83-0.44-2.32c-0.29-0.48-0.74-0.73-1.36-0.73c-0.6,0-1.04,0.23-1.32,0.69
			c-0.28,0.46-0.44,1.18-0.45,2.16v3.11c0,1.04,0.14,1.82,0.43,2.33c0.28,0.51,0.74,0.76,1.37,0.76c0.62,0,1.07-0.24,1.34-0.73
			c0.28-0.49,0.42-1.23,0.43-2.23V859.12z"/>
		<path style="fill:#2A2A2A;" d="M296.16,866.03c-0.63,0.76-1.49,1.14-2.6,1.14c-1.02,0-1.8-0.29-2.33-0.88s-0.81-1.44-0.82-2.58
			v-6.23h2.54v6.15c0,0.99,0.45,1.49,1.35,1.49c0.86,0,1.45-0.3,1.78-0.9v-6.74h2.55V867h-2.39L296.16,866.03z"/>
		<path style="fill:#2A2A2A;" d="M304.92,867.18c-1.39,0-2.53-0.43-3.41-1.28s-1.31-2-1.31-3.42v-0.25c0-0.96,0.18-1.81,0.55-2.56
			s0.89-1.33,1.57-1.74s1.45-0.61,2.32-0.61c1.3,0,2.32,0.41,3.07,1.23s1.12,1.98,1.12,3.49v1.04h-6.06
			c0.08,0.62,0.33,1.12,0.74,1.49s0.94,0.56,1.57,0.56c0.98,0,1.74-0.35,2.29-1.06l1.25,1.4c-0.38,0.54-0.9,0.96-1.55,1.26
			C306.43,867.02,305.71,867.18,304.92,867.18z M304.63,859.36c-0.5,0-0.91,0.17-1.23,0.51c-0.31,0.34-0.51,0.83-0.6,1.47h3.53v-0.2
			c-0.01-0.57-0.16-1-0.46-1.31C305.58,859.52,305.17,859.36,304.63,859.36z"/>
		<path style="fill:#2A2A2A;" d="M313.31,855.15v2.34h1.63v1.86h-1.63v4.75c0,0.35,0.07,0.6,0.2,0.76s0.39,0.23,0.77,0.23
			c0.28,0,0.53-0.02,0.75-0.06v1.92c-0.5,0.15-1.01,0.23-1.54,0.23c-1.78,0-2.69-0.9-2.72-2.7v-5.12h-1.39v-1.86h1.39v-2.34H313.31z
			"/>
		<path style="fill:#2A2A2A;" d="M319.39,855.15v2.34h1.63v1.86h-1.63v4.75c0,0.35,0.07,0.6,0.2,0.76s0.39,0.23,0.77,0.23
			c0.28,0,0.53-0.02,0.75-0.06v1.92c-0.5,0.15-1.01,0.23-1.54,0.23c-1.78,0-2.69-0.9-2.72-2.7v-5.12h-1.39v-1.86h1.39v-2.34H319.39z
			"/>
		<path style="fill:#2A2A2A;" d="M326.81,867.18c-1.39,0-2.53-0.43-3.41-1.28s-1.31-2-1.31-3.42v-0.25c0-0.96,0.18-1.81,0.55-2.56
			s0.89-1.33,1.57-1.74s1.45-0.61,2.32-0.61c1.3,0,2.32,0.41,3.07,1.23s1.12,1.98,1.12,3.49v1.04h-6.06
			c0.08,0.62,0.33,1.12,0.74,1.49s0.94,0.56,1.57,0.56c0.98,0,1.74-0.35,2.29-1.06l1.25,1.4c-0.38,0.54-0.9,0.96-1.55,1.26
			C328.32,867.02,327.6,867.18,326.81,867.18z M326.52,859.36c-0.5,0-0.91,0.17-1.23,0.51c-0.31,0.34-0.51,0.83-0.6,1.47h3.53v-0.2
			c-0.01-0.57-0.16-1-0.46-1.31C327.48,859.52,327.06,859.36,326.52,859.36z"/>
		<path style="fill:#2A2A2A;" d="M339.2,868.99h-8.01V867h8.01V868.99z"/>
	</g>
	<g>
		<defs>
			<rect id="SVGID_1_" x="214" y="848" width="24" height="24"/>
		</defs>
		<clipPath id="SVGID_00000147199073386242614790000008030427416272741274_">
			<use xlink:href="#SVGID_1_"  style="overflow:visible;"/>
		</clipPath>
		
			<g id="Groupe_de_masques_3" transform="translate(69.63 163.63)" style="clip-path:url(#SVGID_00000147199073386242614790000008030427416272741274_);">
			<g id="_015-twitch" transform="translate(144.773 684)">
				<g id="Groupe_10">
					<g id="Groupe_9">
						<path id="Tracé_3" style="fill:#2A2A2A;" d="M1.55,0L0,4.64v17.01h6.18v3.09h3.09l3.09-3.09h4.64l6.18-6.59V0H1.55z
							 M21.65,13.92l-4.33,4.64h-5.48L8.5,20.98v-2.42H3.09V1.55h18.55L21.65,13.92z"/>
					</g>
				</g>
				<g id="Groupe_12" transform="translate(10.824 6.185)">
					<g id="Groupe_11">
						<rect id="Rectangle_12" x="0" y="0" style="fill:#2A2A2A;" width="1.55" height="6.18"/>
					</g>
				</g>
				<g id="Groupe_14" transform="translate(15.463 6.185)">
					<g id="Groupe_13">
						<rect id="Rectangle_13" x="0" y="0" style="fill:#2A2A2A;" width="1.55" height="6.18"/>
					</g>
				</g>
			</g>
		</g>
	</g>
</g>
</svg>
