<?xml version="1.0" encoding="utf-8"?>
<!-- Generator: Adobe Illustrator 26.2.1, SVG Export Plug-In . SVG Version: 6.00 Build 0)  -->
<svg version="1.1" id="Calque_1" xmlns="http://www.w3.org/2000/svg" xmlns:xlink="http://www.w3.org/1999/xlink" x="0px" y="0px"
	 viewBox="0 0 512 512" style="enable-background:new 0 0 512 512;" xml:space="preserve">
<style type="text/css">
	.st0{fill:#C7105E;}
	.st1{fill:#0A7CF9;}
	.st2{fill:#010101;}
	.st3{fill:#D3314D;}
	.st4{fill:#1B70E9;}
	.st5{fill:#2C66DB;}
	.st6{fill:#D94445;}
	.st7{fill:#3960D2;}
	.st8{fill:#1076F2;}
	.st9{fill:#DE563B;}
	.st10{fill:#F6A117;}
	.st11{fill:#FBB111;}
	.st12{fill:#F08F20;}
	.st13{fill:#E7732E;}
	.st14{fill:#5B4CB6;}
	.st15{fill:#952B86;}
	.st16{fill:#FBFBFB;}
</style>
<path class="st0" d="M22.2,235.6c-4.5-26.7-8.8-53.4-13.6-80.1c-2.7-14.8-3.1-30.1-8.4-44.5c0-2.8,0-5.7,0-8.5
	c1.7-0.9,3.5-1.7,5.1-2.8c47-31.6,93.9-63.2,140.8-94.8c2.1-1.4,3.9-3.1,5.8-4.7c1.1,0,2.3,0,3.4,0c-0.1,0.4-0.3,0.7-0.4,1.1
	c0,0.2,0.1,0.4,0.2,0.6c7.4,13.8,16.6,26.5,25.8,39.2c7.6,11.6,14.8,23.5,23.7,34.2c4,6.9,8,13.8,12,20.8c-3.4,0.3-6.7,0.7-10.1,0.7
	c-33.2,0.1-66.3,0.2-99.5-0.1c-7.4-0.1-10.1,1.4-10,9.6c0.4,36.3,0,72.6-0.1,108.8C72.1,221.9,47.1,228.8,22.2,235.6z"/>
<path class="st0" d="M416.6,147.9c28.9,15.6,57.8,31.2,86.8,46.8c2.6,1.4,5,3.9,8.4,3.3c0,1.1,0,2.3,0,3.4c-2.6,0.7-2.9,3.2-3.9,5.1
	c-17.6,31.8-35.2,63.7-52.7,95.6c-3.1-4-4.9-8.7-6.8-13.3c-2.1-7.9-7.1-14.5-10.3-22c-6.3-14.7-12.7-29.5-21.5-43
	C416.6,198.5,416.6,173.2,416.6,147.9z"/>
<path class="st1" d="M505.1,410.9c3.2,2.9,2.8,8,6.7,10.5c0,1.1,0,2.3,0,3.4c-3.9,0.4-6.6,3.1-9.7,4.9
	c-44.3,25.8-88.7,51.6-132.9,77.6c-2.1,1.2-4.9,1.6-5.7,4.5c-1.1,0-2.3,0-3.4,0c-14.4-7.8-28.7-15.6-43.1-23.4
	c-2.2-1.2-4.3-2.6-6.4-3.9c1-2.4,3.1-3,5.3-3.8c51.3-18.6,102.7-37.2,154-56C481.7,420.5,494.1,417.5,505.1,410.9z"/>
<path class="st2" d="M416.6,147.9c0,25.3,0,50.5,0,75.8c0,24.4,0,48.9,0,73.3c0,20.4,0,40.9,0,61.3c0,11.4,0,22.7,0,34.1
	c0,5.1,0,10.2,0,15.4c0.6,6.2-2.2,8.2-8.2,7.6c-3.5-0.4-7.1,0.3-10.7,0.6c-21.6-1.3-43.3-1.1-64.9,0c-4-1.2-8-1-12-0.2
	c-18.2-0.2-36.3-0.5-54.5-0.5c-20.4,0-40.9,0.4-61.3,0.6c-5.6-1.5-11.3-0.6-16.9-0.7c-30.2-0.3-60.5-0.4-90.7-0.6
	c-0.1-21-0.2-42.1-0.3-63.1c0-11.4,0-22.8,0-34.1c0-17.6,0-35.2,0-52.8c0-16.5,0-33,0-49.4c0.1-36.3,0.5-72.6,0.1-108.8
	c-0.1-8.2,2.6-9.7,10-9.6c33.2,0.4,66.3,0.2,99.5,0.1c3.4,0,6.7-0.5,10.1-0.7c6.3,1.5,12.7,0.5,19.1,0.5c4.4-0.2,8.8-0.4,13.2-0.6
	c13.7,1.2,27.3,1.1,41,0c23.1,1,46.1,1.5,69.2-0.3c16.3,2.1,32.6,0.8,48.9,0.7c6.6,0,8.5,1.7,8.3,8.3
	C416,119.2,416.5,133.6,416.6,147.9z M264.1,204c0,20.5,0,40.9,0,61.4c0,3.4-0.9,6.7,4.8,6.6c19-0.4,38.1,0.4,57.1-0.7
	c33.1-2,59.6-28.9,61.3-61c2-35.5-19.3-63.8-53.6-70.2c-21.9-4.1-44.2-1.1-66.3-1.8c-5-0.2-3.2,3.8-3.3,6.1
	C264,164.2,264.1,184.1,264.1,204z M240.4,270.7c-0.1-0.9,0-1.2-0.2-1.4c-7.6-11.3-15.3-22.5-22.9-33.8c-2.4-3.5-6.5-7-6.7-10.6
	c-0.1-4.8,6.9-4.3,9.8-7.5c0.6-0.6,1.3-1.1,2-1.6c13.6-11.4,18.9-30.6,13.3-48c-5.5-17-21.4-28.9-40.7-29.4
	c-20.4-0.5-40.9,0.2-61.3-0.4c-6.8-0.2-7.7,2.2-7.6,8.1c0.3,34.4,0.1,68.7,0.2,103.1c0,7.1-2.4,16.8,1.2,20.5
	c4.7,4.8,14.5,0.9,22,1.7c4.7,0.5,6.4-1.1,6.2-6c-0.4-10.5-0.1-21-0.1-31.5c0-2.9-0.4-5.4,4-5.6c11.6-0.7,22.7-1,27.7,12.7
	c0.8,2.1,2.4,3.9,3.7,5.7c6.1,8.1,9,20.3,17.9,23.9c8.8,3.5,20.1,0.8,30.4,0.8C239.5,271.1,239.7,270.9,240.4,270.7z M186.1,375.5
	c15.3,0,30.6,0,45.9,0c14.4,0,14.2,0,13.7-14.5c-0.1-3.8-0.8-5.5-5.2-5.5c-36.6,0.1-73.2,0.1-109.8,0c-3.9,0-5,1.5-4.7,5
	c0.2,2.5,0.3,5.1,0,7.6c-0.9,5.8,1.1,7.7,7.2,7.5C150.9,375.2,168.5,375.5,186.1,375.5z"/>
<path class="st3" d="M235.9,96.6c-6.4-0.1-12.8,1-19.1-0.5c-4-6.9-8-13.8-12-20.8c7.1-4.8,8.6-12.9,12.1-19.9
	c2.5-5,3.5-10.8,8.5-14.3c13.7,7.5,27.3,14.9,41,22.4c-1.5,2.1-3,4.3-4.5,6.4c-9.1,7.1-16.6,15.8-24.7,24c-1,0.4-2.1,0.7-1,2.1
	L235.9,96.6z"/>
<path class="st4" d="M235.9,96.6c0,0,0.2-0.7,0.3-0.7c0.3-0.7,0.7-1.4,1-2.1c8.1-8.2,15.6-16.8,24.7-24c3.8,0.7,7.3-0.3,10.8-1.6
	c21.8-7.9,43.6-15.9,65.4-23.8c2.1,5.1,4.3,10.3,6.4,15.4c-6.3-0.6-11.4,3.1-16.9,5c-24.3,8.5-48.4,17.4-72.6,26.2
	c-2.4,0.9-6,0.8-5.9,4.9C244.7,96.2,240.3,96.4,235.9,96.6z"/>
<path class="st5" d="M249.1,96.1c-0.2-4.1,3.5-4,5.9-4.9c24.2-8.9,48.3-17.7,72.6-26.2c5.5-1.9,10.6-5.7,16.9-5
	c1.9,3,3.4,6.2,3.9,9.8c-1,2.7-3.4,3.4-5.9,4.3c-15.1,5.3-30.2,10.9-45.2,16.3c-3.1,1.1-6.9,1.2-7.2,5.8
	C276.4,97.2,262.7,97.3,249.1,96.1z"/>
<path class="st6" d="M225.3,41.1c-5,3.5-6,9.3-8.5,14.3c-3.5,7-5,15.1-12.1,19.9c-8.9-10.7-16.1-22.6-23.7-34.2
	c9.3-2.6,7.8-12.2,11.9-18.3C203.7,28.9,214.5,35,225.3,41.1z"/>
<path class="st7" d="M290,96.1c0.3-4.6,4.1-4.7,7.2-5.8c15.1-5.4,30.1-11,45.2-16.3c2.5-0.9,4.8-1.6,5.9-4.3
	c4.4,8.4,7.7,17.2,10.9,26.1C336.2,97.6,313.1,97.1,290,96.1z"/>
<path class="st1" d="M275.7,56.2c15.7-15.9,31.4-31.8,47.9-48.5c4.3,10.9,8.1,20.3,11.8,29.8c-11.9,4.1-23.7,8.4-35.6,12.4
	C291.9,52.4,284.5,56.9,275.7,56.2z"/>
<path class="st8" d="M275.7,56.2c8.8,0.8,16.2-3.7,24.1-6.3c11.9-4,23.8-8.2,35.6-12.4c0.9,2.3,1.7,4.7,2.6,7
	c-21.8,7.9-43.6,15.9-65.4,23.8c-3.5,1.3-7,2.3-10.8,1.6c1.5-2.1,3-4.3,4.5-6.4C270.4,62.3,272,57.9,275.7,56.2z"/>
<path class="st9" d="M192.9,22.8c-4,6.1-2.5,15.7-11.9,18.3c-9.2-12.6-18.4-25.3-25.8-39.2C167.8,8.9,180.3,15.8,192.9,22.8z"/>
<path class="st10" d="M204.9,415.9c20.4-0.2,40.9-0.6,61.3-0.6c18.2,0,36.3,0.3,54.5,0.4c-2.8,2.5-7,3.5-8.4,7.6
	c-4.3-0.4-5.6,3.6-8.3,5.7c-2.9-4.1-6.4-2.2-9.9-1.2c-42.4,11.9-84.9,23.7-127.3,35.6c-16,4.5-32.4,7.9-47.8,14.5
	c-15.4-5.2-30.8-10.6-45.6-17.4c0.1-4.1,3.4-4.7,6.4-5.6c5.1-1.5,10.3-3,15.4-4.4c33.9-9.5,67.7-18.9,101.6-28.5
	C200.2,421,204.6,421,204.9,415.9z"/>
<path class="st11" d="M119.1,477.9c15.4-6.6,31.7-10,47.8-14.5c42.4-12,84.8-23.7,127.3-35.6c3.5-1,7.1-2.8,9.9,1.2
	c-12.8,10.7-25.6,21.4-38.4,32c-18.8,15.1-37.5,30.2-56.3,45.4c-2.9,2.3-5.3,4.9-9.7,3.1C172.9,498.9,146,488.5,119.1,477.9z"/>
<path class="st4" d="M397.7,415.9c3.6-0.2,7.2-1,10.7-0.6c6,0.7,8.8-1.4,8.2-7.6c4.4,0.4,8.3-1.4,12.3-2.9
	c20.9-7.6,41.9-15.2,62.8-22.8c3.7,6.2,6.9,12.5,9,19.4c-1.5,2.7-4.1,3.7-6.9,4.6c-14.4,5.1-28.8,10.3-43.2,15.5
	c-48.2,17.4-96.4,34.9-144.6,52.3c-2.8,1-5.4,1.8-5.6,5.4c-8.4-3.2-16-8-23.8-12.3c0.9-5,5.3-5.3,8.9-6.6
	c34.8-12.6,69.6-25.1,104.4-37.8C393,421.4,397.4,420.9,397.7,415.9z"/>
<path class="st12" d="M204.9,415.9c-0.4,5.1-4.7,5.1-8,6c-33.8,9.6-67.7,19-101.6,28.5c-5.1,1.4-10.3,2.9-15.4,4.4
	c-3,0.9-6.2,1.4-6.4,5.6c-0.3,0-0.6,0-0.8,0c-21.2-2.8-17.3-20.1-19.6-33.9c15.2-2.3,29.9-6.6,44.3-11.9c30.2,0.2,60.5,0.3,90.7,0.6
	C193.7,415.3,199.3,414.5,204.9,415.9z"/>
<path class="st3" d="M97.1,215.1c0,16.5,0,33,0,49.4c-5.5-0.1-10.4,2-15.6,3.3c-17.4,4.5-34.3,10.8-52.1,13.7
	c-3-15.2-5.8-30.5-7.2-46C47.1,228.8,72.1,221.9,97.1,215.1z"/>
<path class="st6" d="M29.4,281.6c17.8-3,34.7-9.2,52.1-13.7c5.2-1.3,10.1-3.4,15.6-3.3c0,17.6,0,35.2,0,52.8c-6.3-0.4-12.1,2-18,3.5
	C65.3,324.3,52,330,37.6,331C33.9,314.7,31.4,298.2,29.4,281.6z"/>
<path class="st13" d="M97.3,414.7c-14.4,5.2-29.1,9.5-44.3,11.9c-4.2-20.3-7.5-40.8-10.1-61.4c2.8-0.3,5.7-0.2,8.4-0.9
	c15.3-4.1,30.5-8.4,45.7-12.7C97.2,372.6,97.3,393.6,97.3,414.7z"/>
<path class="st5" d="M397.7,415.9c-0.3,4.9-4.7,5.4-7.9,6.6c-34.7,12.7-69.6,25.2-104.4,37.8c-3.6,1.3-8,1.6-8.9,6.6
	c-3.6-1.9-7.2-3.9-10.8-5.8c12.8-10.7,25.6-21.4,38.4-32c2.7-2,4-6,8.3-5.7c8.6,2.3,14.9-1.3,20.4-7.4
	C354.4,414.8,376,414.7,397.7,415.9z"/>
<path class="st8" d="M300.3,479.2c0.2-3.6,2.8-4.3,5.6-5.4c48.2-17.4,96.4-34.8,144.6-52.3c14.4-5.2,28.8-10.4,43.2-15.5
	c2.7-1,5.3-1.9,6.9-4.6c2.2,2.8,3.9,5.9,4.5,9.4c-11,6.6-23.5,9.5-35.3,13.9c-51.3,18.8-102.6,37.4-154,56c-2.2,0.8-4.3,1.4-5.3,3.8
	C306.7,483.6,303.5,481.5,300.3,479.2z"/>
<path class="st9" d="M97.1,351.5c-15.2,4.2-30.5,8.6-45.7,12.7c-2.7,0.7-5.6,0.6-8.4,0.9c-2.5-11.3-4.5-22.6-5.4-34.1
	c14.4-1.1,27.6-6.7,41.4-10.2c6-1.5,11.7-3.9,18-3.5C97.1,328.8,97.1,340.2,97.1,351.5z"/>
<path class="st14" d="M416.6,358.4c0-20.4,0-40.9,0-61.3c3.1,0.1,5.9-0.9,8.8-1.9c7.5-2.6,14.6-6.8,23-6.4c1.9,4.6,3.7,9.3,6.8,13.3
	c5.6,12.5,11.3,25.1,16.9,37.6c-4,0.1-7.5,2-11.2,3.3C446.1,348.1,431.3,353.2,416.6,358.4z"/>
<path class="st15" d="M448.4,288.7c-8.4-0.4-15.5,3.8-23,6.4c-2.9,1-5.7,2-8.8,1.9c0-24.4,0-48.9,0-73.3c8.8,13.5,15.2,28.3,21.5,43
	C441.3,274.2,446.2,280.8,448.4,288.7z"/>
<path class="st7" d="M416.6,358.4c14.8-5.2,29.6-10.3,44.3-15.5c3.7-1.3,7.2-3.2,11.2-3.3c4.8,10.1,10.4,19.9,13.9,30.7
	c-11.5,0.8-21.2,7.1-31.9,10.2c-12.6,3.6-24.1,10.7-37.5,12C416.6,381.1,416.6,369.7,416.6,358.4z"/>
<path class="st5" d="M416.6,392.4c13.4-1.3,24.9-8.4,37.5-12c10.7-3.1,20.5-9.3,31.9-10.2c2.4,3.7,4.8,7.4,5.7,11.8
	c-20.9,7.6-41.9,15.2-62.8,22.8c-4,1.4-7.9,3.3-12.3,2.9C416.6,402.7,416.6,397.6,416.6,392.4z"/>
<path class="st16" d="M264.1,204c0-19.9-0.1-39.8,0.1-59.7c0-2.4-1.7-6.3,3.3-6.1c22.1,0.8,44.4-2.3,66.3,1.8
	c34.3,6.4,55.5,34.6,53.6,70.2c-1.8,32.1-28.3,59.1-61.3,61c-19,1.1-38.1,0.3-57.1,0.7c-5.7,0.1-4.8-3.2-4.8-6.6
	C264.1,244.9,264.1,224.4,264.1,204z M293.5,204.3c0,11.6,0.2,23.3-0.1,34.9c-0.1,4.5,1.3,5.8,5.7,5.6c6.8-0.3,13.6,0.2,20.4,0
	c17.8-0.5,33.3-13.2,36.9-29.8c4.2-19.6-3.8-37.6-20.2-46.3c-12.9-6.9-26.6-3.9-40.1-4.3c-4.1-0.1-2.6,3.7-2.6,5.9
	C293.4,181.6,293.5,193,293.5,204.3z"/>
<path class="st16" d="M240.4,270.7c-0.6,0.3-0.9,0.5-1.1,0.5c-10.2,0-21.5,2.7-30.4-0.8c-8.9-3.6-11.9-15.8-17.9-23.9
	c-1.4-1.8-3-3.6-3.7-5.7c-5-13.7-16.1-13.4-27.7-12.7c-4.4,0.3-4,2.8-4,5.6c0,10.5-0.2,21,0.1,31.5c0.2,4.9-1.5,6.5-6.2,6
	c-7.5-0.7-17.3,3.1-22-1.7c-3.6-3.7-1.2-13.4-1.2-20.5c-0.1-34.4,0.1-68.7-0.2-103.1c0-5.9,0.8-8.3,7.6-8.1
	c20.4,0.6,40.9-0.2,61.3,0.4c19.2,0.5,35.1,12.5,40.7,29.4c5.7,17.3,0.3,36.5-13.3,48c-0.7,0.5-1.4,1-2,1.6
	c-2.9,3.3-9.9,2.7-9.8,7.5c0.1,3.6,4.3,7.1,6.7,10.6c7.6,11.3,15.3,22.5,22.9,33.8C240.3,269.5,240.3,269.8,240.4,270.7z
	 M173.5,202.7c6-0.3,12.9,0.6,19.6-1.2c9.3-2.5,14.4-9.2,14.2-18.6c-0.2-9.3-5-15.1-14.3-17.5c-5.6-1.5-11.3-1.3-16.9-1.1
	c-6.7,0.2-15.4-2.9-19.7,1.3c-4.3,4.2-1.2,12.9-1.3,19.7C154.8,202.7,154.9,202.7,173.5,202.7z"/>
<path class="st16" d="M186.1,375.5c-17.6,0-35.2-0.3-52.7,0.2c-6.1,0.2-8.1-1.7-7.2-7.5c0.4-2.5,0.2-5.1,0-7.6c-0.3-3.5,0.9-5,4.7-5
	c36.6,0.1,73.2,0.1,109.8,0c4.3,0,5,1.7,5.2,5.5c0.5,14.5,0.7,14.5-13.7,14.5C216.8,375.5,201.4,375.5,186.1,375.5z"/>
<path class="st7" d="M332.8,416c-5.5,6.1-11.9,9.8-20.4,7.4c1.3-4.1,5.6-5.1,8.4-7.6C324.8,415,328.8,414.7,332.8,416z"/>
<path class="st14" d="M237.1,93.8c-0.3,0.7-0.6,1.4-1,2.1C235,94.6,236.1,94.2,237.1,93.8z"/>
<path class="st2" d="M293.5,204.3c0-11.3-0.1-22.7,0.1-34c0-2.2-1.5-6,2.6-5.9c13.4,0.4,27.2-2.5,40.1,4.3
	c16.3,8.7,24.4,26.7,20.2,46.3c-3.6,16.6-19.1,29.3-36.9,29.8c-6.8,0.2-13.6-0.3-20.4,0c-4.4,0.2-5.8-1.1-5.7-5.6
	C293.7,227.6,293.5,215.9,293.5,204.3z"/>
<path class="st2" d="M173.5,202.7c-18.5,0-18.7,0-18.5-17.5c0.1-6.7-3-15.5,1.3-19.7c4.3-4.2,13-1,19.7-1.3
	c5.7-0.2,11.3-0.4,16.9,1.1c9.3,2.4,14.1,8.3,14.3,17.5c0.2,9.4-5,16.1-14.2,18.6C186.3,203.4,179.5,202.5,173.5,202.7z"/>
</svg>
