<?xml version="1.0" encoding="utf-8"?>
<!-- Generator: Adobe Illustrator 26.2.1, SVG Export Plug-In . SVG Version: 6.00 Build 0)  -->
<svg version="1.1" id="Calque_1" xmlns="http://www.w3.org/2000/svg" xmlns:xlink="http://www.w3.org/1999/xlink" x="0px" y="0px"
	 viewBox="0 0 512 512" style="enable-background:new 0 0 512 512;" xml:space="preserve">
<style type="text/css">
	.st0{fill:#00CCD6;}
	.st1{fill:#FEEF45;}
	.st2{fill:#2087D6;}
	.st3{fill:#159ED6;}
	.st4{fill:#06C0D6;}
	.st5{fill:#C6E765;}
	.st6{fill:#1C90D6;}
	.st7{fill:#1894D4;}
	.st8{fill:#0BB4D6;}
	.st9{fill:#10A9D6;}
	.st10{fill:#0EBFBF;}
	.st11{fill:#5BD8A2;}
	.st12{fill:#96E180;}
	.st13{fill:#FDFDFD;}
</style>
<path class="st0" d="M0,54.6c0-0.4,0-0.9,0-1.3c0.3-0.1,0.5-0.2,0.8-0.3C42.6,35.9,84.3,18.8,126,1.6c1.5-0.6,2.5-0.5,3.9,0.3
	c25.6,15.2,51.1,30.4,76.7,45.7c2,1.2,3.4,1.2,5.3,0.1c23.5-12.7,47-25.4,70.4-38.1c0.8-0.4,1.4-0.8,2.4-0.4
	c7.5,3,15.1,5.9,22.6,8.8c-0.5,0.6-1,1.1-1.6,1.7C286.9,37.8,268,56,249.1,74.1c-8.1,7.8-16.2,15.7-24.3,23.5
	c-0.2,0.1-0.3,0.2-0.5,0.4c-0.9,0-1.7,0.1-2.6,0.1c-40.4,0-80.7,0-121.1,0c-2,0-2.6,0.4-2.6,2.5c0.1,36.2,0.1,72.4,0,108.5
	c0,0.8-0.1,1.7-0.1,2.6c-1.1-0.1-2.1,0.1-3.1,0.4c-3,0.9-6,1.7-9,2.5c-12.5,3.5-24.9,6.9-37.4,10.4c-6.2,1.7-12.4,3.4-18.6,5
	c-0.1-0.1-0.2-0.2-0.2-0.4c-2.9-17.2-5.8-34.4-8.7-51.6c-3.1-18.3-6.1-36.5-9.2-54.8C8.7,105,5.7,86.8,2.6,68.6
	C1.8,64,1.3,59.2,0,54.6z"/>
<path class="st0" d="M512,336.6c-7.5,4.4-14.9,8.7-22.4,13.2c-24.6,14.6-49.1,29.3-73.7,43.9c-0.4,0.2-0.8,0.4-1.1,0.5
	c-0.2,0-0.5,0-0.7,0c0,0.1,0.1,0.2,0.1,0.3c0,0-0.1,0.1-0.1,0.1c0-0.9-0.1-1.8-0.1-2.8c0-92.2,0-184.3,0-276.5
	c0-0.9,0.1-1.8,0.1-2.8c1,0.2,1.8-0.4,2.5-0.9c3.7-2.5,7.3-5.1,11-7.6c11.3-7.7,22.6-15.4,33.9-23c2.7-1.8,5.4-3.7,7.3-6.4
	c0.7-1,1.2-2.1,2.4-2.6c0.3,0.5,0.6,1,0.8,1.5c5.7,14.2,11.5,28.4,17.2,42.7c3,7.6,6.4,15.1,9,22.8c-0.5,0.2-1.1,0.4-1.6,0.6
	c-11.4,3.2-22.7,6.5-34.1,9.7c-14.3,4-28.6,8-42.9,12c-1.8,0.5-2.1,1.5-1.2,3.2c1.2,2.1,2.2,4.3,3.5,6.3c2.2,3.6,3.7,7.5,6.2,10.8
	c1.8,3.7,3.6,7.3,6,10.7c0.8,2,1.9,3.8,3,5.5c1,2.1,2,4.2,3.4,6c1,2.8,2.7,5.2,4.3,7.7c2.3,4.2,4.5,8.4,6.9,12.6
	c1.4,2.5,2.5,5.2,4.3,7.4c0.3,0.8,0.6,1.6,1,2.3c13.4,24.9,26.8,49.8,40.2,74.7c4.9,9.2,9.9,18.3,14.9,27.5
	C512,336.3,512,336.5,512,336.6z"/>
<path class="st1" d="M224.8,97.6c8.1-7.8,16.2-15.7,24.3-23.5C268,56,286.9,37.8,305.7,19.7c0.6-0.5,1.1-1.1,1.6-1.7
	c3-2.9,6.1-5.7,9.1-8.6c3.2-3.1,6.6-5.9,9.5-9.3c1,0,2,0,3,0c0.3,0.1,0.6,0.3,1,0.3c5.1,0.4,10.2,0.9,15.3,1.3
	c13.1,1.1,26.3,2.3,39.4,3.4c15.6,1.3,31.2,2.7,46.8,4c-0.1,1-0.9,1.5-1.7,2.1c-3.4,2.3-6.8,4.6-10.2,6.9
	c-11.8,8.1-23.6,16.1-35.4,24.2c-16,10.9-31.9,21.8-47.9,32.6c-10.3,7-20.7,14.1-31.1,21.1c-0.8,0.5-1.5,1-1.8,2
	c-0.8,0-1.6,0.1-2.3,0.1c-24.7,0-49.4,0-74.1,0c-0.7,0-1.4-0.1-2.1-0.1C224.9,97.9,224.9,97.7,224.8,97.6z"/>
<path class="st2" d="M369.6,421.5c-2.2,11.5-4.5,23-6.7,34.5c-3.6,18.2-7.2,36.3-10.8,54.5c-0.1,0.5-0.1,1-0.1,1.5
	c-0.4,0-0.9,0-1.3,0c-5.3-1.4-10.7-2-16.1-3c-20.1-3.5-40.1-7-60.2-10.4c-19.4-3.4-38.9-6.7-58.3-10.1c-21.5-3.7-42.9-7.5-64.4-11.2
	c0.1-0.9,0.7-1.3,1.5-1.5c5.2-1.4,10.5-2.9,15.7-4.3c11.2-3.1,22.3-6.2,33.5-9.3c11.9-3.3,23.8-6.6,35.7-9.9
	c3.9-1.1,7.8-2.3,11.7-3.4c0.2,0.1,0.4,0.1,0.6,0.2c10.5,7.5,21,14.9,31.5,22.4c1.1,0.8,1.9,1,3.2,0.2c9-5.4,18-10.8,27-16.1
	c14.1-8.4,28.1-16.8,42.2-25.1C359.6,427.4,364.4,424.1,369.6,421.5z"/>
<path class="st3" d="M512,173.7c-1.6,1.6-3.2,3.1-4.8,4.7c-0.7-0.1-1.4-0.5-2.3-0.3c-6.7,2-13.4,3.9-20.2,5.8
	c-13.7,3.9-27.5,7.7-41.2,11.7c-2.2,0.6-4.8,0.5-6.6,2.5c-1.2-1.8-2.2-3.6-3-5.5c0.8-0.4,1.5-0.9,2.3-1.1c5.6-1.6,11.3-3.2,16.9-4.8
	c15.9-4.5,31.8-9.1,47.8-13.5c3.3-0.9,6.4-2.3,9.9-2.4c0.4,0.7,0.8,1.4,1.2,2.1C512,173.1,512,173.4,512,173.7z"/>
<path d="M224.8,98c0.7,0,1.4,0.1,2.1,0.1c24.7,0,49.4,0,74.1,0c0.8,0,1.6-0.1,2.3-0.1c11.4,0.2,22.8,0.1,34.1,0c9.8,0,19.6,0,29.5,0
	c15.5,0,31,0,46.5,0c0.9,0.5,0.5,1.4,0.5,2.1c0.1,4.2,0.1,8.4,0.1,12.6c0,0.9-0.1,1.8-0.1,2.8c0,92.2,0,184.3,0,276.5
	c0,0.9,0.1,1.8,0.1,2.8c0,4.1-0.1,8.2-0.1,12.3c-0.1,2.2,1,5.3-0.4,6.5c-1.3,1.1-4.3,0.4-6.6,0.4c-8.4,0-16.7,0.1-25.1,0.1
	c-0.3,0-0.6,0-0.9,0c-0.6,0-1.3-0.1-1.9-0.1c-58.4,0-116.9,0-175.3,0c-0.6,0-1.3,0.1-1.9,0.1c-0.1,0-0.3,0-0.4,0
	c-0.4,0-0.8-0.1-1.3-0.1c-22,0-44,0-66,0c-0.5,0-1,0.1-1.5,0.1c-2.3,0-4.5-0.1-6.8-0.1c-8.7,0-17.3,0-26,0c-1.5,0-2-0.4-1.9-1.9
	c0.1-2,0-4,0-6c0-9.9-0.1-19.9-0.1-29.8c0-0.8,0.1-1.6,0.1-2.3c0-14.9,0-29.8,0-44.6c0-2.4-0.1-4.8-0.1-7.2c0-0.8,0.1-1.7,0.1-2.5
	c0-14.2,0-28.5,0-42.7c0-2.7-0.1-5.4-0.1-8.1c0-0.8,0.1-1.6,0.1-2.3c0-16.7,0-33.4,0-50.2c0-1.6-0.1-3.1-0.1-4.7
	c0-0.9,0.1-1.7,0.1-2.6c0-36.2,0-72.4,0-108.5c0-2.1,0.6-2.5,2.6-2.5c40.4,0.1,80.7,0,121.1,0c0.9,0,1.7-0.1,2.6-0.1
	C224.4,98,224.6,98,224.8,98z M204.6,194.7c0.1,0,0.3,0,0.4,0c0.1,0.3,0.2,0.5,0.3,0.8c6.7,24,13.4,47.9,20,71.9
	c0.6,2.1,1.4,2.7,3.6,2.7c6.7-0.2,13.5-0.1,20.3,0c1.4,0,1.9-0.4,2.3-1.7c12-42.4,24.1-84.8,36.3-127.2c0.5-1.8,0.1-2.1-1.6-2
	c-8.9,0.1-17.8,0.1-26.7,0c-1.5,0-2.1,0.4-2.4,1.8c-3,11.7-6,23.3-9,35c-3.3,12.8-6.6,25.6-10,38.5c-0.9-0.5-0.8-1.4-1-2.1
	c-6.9-23.8-13.7-47.5-20.5-71.3c-0.4-1.3-0.8-1.9-2.4-1.9c-6.1,0.1-12.2,0.1-18.3,0c-1.4,0-1.9,0.4-2.3,1.7
	c-3.6,12.4-7.4,24.9-11.1,37.3c-3.6,12.1-7.2,24.2-10.8,36.4c-0.6-0.4-0.6-0.9-0.7-1.4c-6.2-24-12.5-48-18.7-72.1
	c-0.4-1.5-0.9-2-2.5-2c-8.7,0.1-17.5,0.1-26.2,0c-1.5,0-1.7,0.3-1.3,1.8c12.2,42.5,24.3,85,36.3,127.6c0.4,1.3,0.9,1.6,2.2,1.6
	c6.8-0.1,13.6-0.1,20.5,0c1.5,0,2.1-0.4,2.5-1.8c4.2-14.9,8.6-29.8,12.9-44.8C199,213.8,201.8,204.2,204.6,194.7z M334.2,136.1
	c-2.9-0.1-5.7,0.1-8.5,0.5c-10.6,1.4-20.3,5.1-27.7,13.1c-10.6,11.6-11.8,25.4-8,39.9c2.7,10.3,10.4,16.2,19.8,20.3
	c8,3.5,16.4,5.4,24.7,7.7c5.8,1.6,11.6,3.3,16.8,6.4c2.8,1.7,4.9,3.8,5.4,7.2c1,7.3-2.1,12.1-9.2,14.1c-6.7,1.9-13.5,1.4-20.2-0.2
	c-9.8-2.3-18.2-7.4-26-13.6c-1.2-0.9-1.7-0.9-2.6,0.3c-4.8,6-9.7,11.9-14.6,17.8c-0.9,1.1-0.8,1.6,0.3,2.5
	c7.2,6.1,15.1,11.1,23.9,14.5c14.9,5.8,30.1,8.3,45.9,4.4c30-7.4,34.9-33.4,29.4-52.1c-2.9-9.8-10.3-15.5-19-19.9
	c-8.4-4.2-17.4-6.5-26.3-9c-5.3-1.5-10.5-3-15.3-5.6c-3-1.6-5.3-3.8-6-7.3c-1.3-7.1,1.9-12.3,9.1-14.3c5.5-1.5,11.1-1.1,16.6,0.2
	c8.3,2,15.7,6.1,22.7,10.9c1.3,0.9,1.9,1,2.9-0.5c4.1-6.3,8.3-12.6,12.5-18.8c0.9-1.3,0.7-1.9-0.5-2.8
	C366.7,141,351.3,136.2,334.2,136.1z M187.1,374.5c2.2,0,4.4,0,6.6,0c16.9,0,33.8,0,50.7,0c1.7,0,2.2-0.4,2.1-2.1
	c-0.1-5.3-0.1-10.7,0-16c0-1.4-0.4-1.8-1.8-1.8c-3.9,0.1-7.8,0-11.7,0c-34.3,0-68.5,0-102.8,0c-1.9,0-2.3,0.5-2.3,2.3
	c0.1,5.1,0.1,10.2,0,15.4c0,1.8,0.4,2.2,2.2,2.2C149.1,374.5,168.1,374.5,187.1,374.5z"/>
<path class="st4" d="M98,211.6c0,1.6,0.1,3.1,0.1,4.7c0,16.7,0,33.4,0,50.2c0,0.8-0.1,1.6-0.1,2.3c-0.8,0.1-1.6,0-2.3,0.2
	c-12.6,3.5-25.2,7-37.7,10.4c-6.3,1.7-12.7,3.4-19,5.1c-1.3-7.5-2.6-15-3.9-22.5c-1.7-9.8-3.3-19.7-4.9-29.5
	c-0.1-0.8-0.2-1.7-0.3-2.5c6.2-1.7,12.4-3.3,18.6-5c12.5-3.4,24.9-6.9,37.4-10.4c3-0.8,6-1.6,9-2.5C95.9,211.8,96.9,211.6,98,211.6z
	"/>
<path class="st5" d="M224.8,98c-0.2,0-0.4,0-0.6,0c0.2-0.1,0.3-0.2,0.5-0.4C224.9,97.7,224.9,97.9,224.8,98z"/>
<path class="st6" d="M250,448.8c-3.9,1.1-7.8,2.3-11.7,3.4c-11.9,3.3-23.8,6.6-35.7,9.9c-11.2,3.1-22.3,6.2-33.5,9.3
	c-5.2,1.5-10.5,2.9-15.7,4.3c-0.8,0.2-1.4,0.6-1.5,1.5c-25.8-4.5-51.7-8.9-77.5-13.4c-1.6-0.3-3.2-0.6-4.8-0.9
	c0.2-0.5,0.6-0.7,1.1-0.9c6.2-1.7,12.4-3.4,18.6-5.1c12.3-3.4,24.6-6.8,37-10.3c13.3-3.7,26.6-7.4,39.8-11.1
	c14-3.9,27.9-7.7,41.9-11.6c2.2-0.6,4.4-1.5,6.4,0.4c0.2,0.2,0.5,0,0.7-0.3c1.1,0.1,1.6,1.1,2.4,1.7c8,5.5,16,11,23.9,16.7
	C244.3,444.5,247.4,446.3,250,448.8z"/>
<path class="st7" d="M215.1,424c-0.2,0.3-0.5,0.5-0.7,0.3c-2.1-1.8-4.2-1-6.4-0.4c-14,3.9-27.9,7.7-41.9,11.6
	c-13.3,3.7-26.6,7.4-39.8,11.1c-12.3,3.4-24.6,6.8-37,10.3c-6.2,1.7-12.4,3.4-18.6,5.1c-0.5,0.1-0.9,0.4-1.1,0.9
	c-1.4,0-1-1.3-1.1-1.9c-1.3-7.1-2.4-14.2-3.6-21.3c-0.3-1.9-0.6-3.9-0.9-5.9c1-0.2,1.9-0.4,2.9-0.6c21.4-5.9,42.7-11.8,64-17.8
	c0.7-0.2,1.8-0.2,1.7-1.4c0.5,0,1-0.1,1.5-0.1c22,0,44,0,66,0c0.4,0,0.8,0.1,1.3,0.1c0.1,0.1,0.3,0.2,0.4,0.2
	c1.9,1.4,3.9,2.8,5.8,4.2C210.1,420.3,212.9,421.8,215.1,424z"/>
<path class="st8" d="M38.9,284.6c6.3-1.7,12.7-3.4,19-5.1c12.6-3.5,25.2-7,37.7-10.4c0.7-0.2,1.5-0.2,2.3-0.2c0,2.7,0.1,5.4,0.1,8.1
	c0,14.2,0,28.5,0,42.7c0,0.8-0.1,1.7-0.1,2.5c-0.7,0-1.4,0.1-2.1,0.3c-12.1,3.4-24.2,6.8-36.3,10.1c-4,1.1-7.9,2.8-12.1,2.9
	c-1.7-10.1-3.5-20.1-5.2-30.2C41.1,298.3,40,291.4,38.9,284.6z"/>
<path class="st9" d="M47.5,335.3c4.2-0.1,8.1-1.8,12.1-2.9c12.1-3.2,24.2-6.7,36.3-10.1c0.7-0.2,1.4-0.2,2.1-0.3
	c0,2.4,0.1,4.8,0.1,7.2c0,14.9,0,29.8,0,44.6c0,0.8-0.1,1.6-0.1,2.3c-0.9,0-1.8,0.1-2.7,0.3c-9.1,2.6-18.2,5.1-27.3,7.5
	c-3.9,1-7.7,2.7-11.9,2.8c-2.8-16.9-5.7-33.7-8.5-50.6C47.5,336.1,47.5,335.7,47.5,335.3z"/>
<path class="st3" d="M56,387c4.2-0.1,8-1.8,11.9-2.8c9.1-2.4,18.2-5,27.3-7.5c0.9-0.3,1.8-0.3,2.7-0.3c0,9.9,0.1,19.9,0.1,29.8
	c0,2,0.1,4,0,6c-0.1,1.5,0.4,1.9,1.9,1.9c8.7-0.1,17.3,0,26,0c2.3,0,4.5,0.1,6.8,0.1c0.1,1.3-1,1.2-1.7,1.4
	c-21.3,6-42.7,11.9-64,17.8c-0.9,0.3-1.9,0.4-2.9,0.6c-1-5.4-2-10.9-2.9-16.3C59.4,407.4,57.7,397.2,56,387z"/>
<path class="st0" d="M215.1,424c-2.2-2.2-5-3.7-7.4-5.6c-1.9-1.5-3.9-2.8-5.8-4.2c0-0.1,0-0.1,0-0.2c0.6,0,1.3-0.1,1.9-0.1
	c58.4,0,116.9,0,175.3,0c0.6,0,1.3,0.1,1.9,0.1c0,0.1,0,0.3,0,0.4c-3.2,1.9-6.4,3.9-9.5,5.8c-0.7,0.4-1.3,0.9-1.9,1.3
	c-5.2,2.6-10,5.8-15,8.8c-14.1,8.3-28.1,16.7-42.2,25.1c-9,5.4-18,10.7-27,16.1c-1.3,0.8-2.1,0.6-3.2-0.2
	c-10.5-7.5-21-14.9-31.5-22.4c-0.2-0.1-0.4-0.1-0.6-0.2c-2.6-2.5-5.8-4.3-8.7-6.4c-7.9-5.6-15.9-11.1-23.9-16.7
	C216.6,425.2,216.2,424.1,215.1,424z"/>
<path class="st10" d="M381,414.4c0-0.1,0-0.2,0-0.4c0.3,0,0.6,0,0.9,0C381.6,414.1,381.3,414.3,381,414.4z"/>
<path class="st10" d="M414,394.3c0.2,0,0.5,0,0.7,0C414.5,394.5,414.3,395,414,394.3z"/>
<path class="st8" d="M498,139.1c3.2,6.7,5.7,13.6,8.4,20.5c-0.3,0-0.7,0-1,0.1c-11.3,3.2-22.7,6.4-34,9.6
	c-14.5,4.1-29,7.9-43.4,12.4c-2.5-3.4-4.1-7.3-6.2-10.8c-1.3-2-2.3-4.2-3.5-6.3c-0.9-1.7-0.6-2.7,1.2-3.2c14.3-4,28.6-8,42.9-12
	c11.4-3.2,22.7-6.4,34.1-9.7C496.9,139.5,497.4,139.3,498,139.1z"/>
<path class="st9" d="M427.9,181.8c14.3-4.5,28.9-8.3,43.4-12.4c11.3-3.2,22.7-6.4,34-9.6c0.3-0.1,0.7-0.1,1-0.1
	c1.3,3.8,3.4,7.2,4.4,11.1c-3.4,0.1-6.6,1.5-9.9,2.4c-16,4.4-31.9,9-47.8,13.5c-5.6,1.6-11.3,3.2-16.9,4.8c-0.8,0.2-1.5,0.7-2.3,1.1
	C431.6,189.1,429.7,185.5,427.9,181.8z"/>
<path class="st10" d="M414,112.7c0-4.2-0.1-8.4-0.1-12.6c0-0.7,0.4-1.6-0.5-2.1c0-1.2,0.8-1.8,1.6-2.3c9.4-6.4,18.8-12.8,28.2-19.2
	c5.8-3.9,11.5-8,17.4-11.8c1.9-1.2,3.5-3.2,6.1-3.1c1.5,3.5,2.9,7.1,4.4,10.6c-1.2,0.5-1.7,1.7-2.4,2.6c-1.9,2.7-4.6,4.6-7.3,6.4
	c-11.3,7.6-22.6,15.3-33.9,23c-3.7,2.5-7.3,5.1-11,7.6C415.8,112.3,415,112.9,414,112.7z"/>
<path class="st2" d="M485.7,200.6c-7,7.4-14.1,14.7-21.1,22.1c-2.9,3-5.8,6-8.8,9c-1.8-2.3-2.9-4.9-4.3-7.4
	c-2.4-4.2-4.6-8.4-6.9-12.6c0.7-0.8,1.7-1,2.6-1.2c11.5-3.3,23.1-6.5,34.6-9.7C483.1,200.3,484.4,200,485.7,200.6z"/>
<path class="st6" d="M485.7,200.6c-1.3-0.6-2.5-0.3-3.9,0.1c-11.5,3.3-23.1,6.5-34.6,9.7c-0.9,0.3-2,0.4-2.6,1.2
	c-1.6-2.5-3.2-4.9-4.3-7.7c1.6-1.9,4.1-1.8,6.2-2.4c16-4.6,32.1-9.1,48.1-13.6c1-0.3,2-0.4,2.5,0.8
	C493.5,192.9,489.6,196.7,485.7,200.6z"/>
<path class="st7" d="M497.1,188.7c-0.5-1.2-1.5-1.1-2.5-0.8c-16,4.5-32.1,9-48.1,13.6c-2.1,0.6-4.5,0.5-6.2,2.4
	c-1.4-1.8-2.4-3.9-3.4-6c1.8-2,4.4-1.8,6.6-2.5c13.7-4,27.5-7.8,41.2-11.7c6.7-1.9,13.5-3.8,20.2-5.8c0.9-0.2,1.5,0.2,2.3,0.3
	C503.9,182,500.6,185.4,497.1,188.7z"/>
<path class="st5" d="M337.5,98c-11.4,0.1-22.8,0.2-34.1,0c0.3-1,1-1.5,1.8-2c10.4-7,20.7-14.1,31.1-21.1
	c16-10.9,31.9-21.8,47.9-32.6c11.8-8.1,23.6-16.1,35.4-24.2c3.4-2.3,6.8-4.6,10.2-6.9c0.8-0.5,1.6-1,1.7-2.1
	c3.4,0.5,6.9-0.2,10.1,1.4c0.1,0.1,0.4-0.1,0.6-0.1c4.4,0,4.4-0.1,5.8,4.1c0.7,2.1,1.9,3.9,2.3,6.1c-0.8,0-1.3,0.6-1.9,1
	c-12.4,8.4-24.8,16.9-37.2,25.4c-12.6,8.6-25.3,17.2-37.9,25.8c-11.4,7.7-22.7,15.5-34.1,23.2C338.2,96.4,337.4,96.9,337.5,98z"/>
<path class="st11" d="M466.7,61.5c-2.6-0.1-4.2,1.9-6.1,3.1c-5.9,3.8-11.6,7.9-17.4,11.8c-9.4,6.4-18.8,12.8-28.2,19.2
	c-0.8,0.6-1.7,1.2-1.6,2.3c-15.5,0-31,0-46.5,0c-0.1-1,0.6-1.5,1.3-2c2.6-1.8,5.2-3.6,7.9-5.4c15.7-10.7,31.3-21.4,47-32
	c8.9-6.1,17.9-12.2,26.8-18.3c2.1-1.4,4-3.2,6.5-3.9c2.7,6.6,5.5,13.1,8.1,19.7C465.3,57.8,466.4,59.5,466.7,61.5z"/>
<path class="st12" d="M456.5,36.3c-2.5,0.8-4.4,2.5-6.5,3.9c-9,6-17.9,12.2-26.8,18.3c-15.7,10.7-31.3,21.4-47,32
	c-2.6,1.8-5.2,3.6-7.9,5.4c-0.7,0.5-1.4,1-1.3,2c-9.8,0-19.6,0-29.5,0c0-1.1,0.7-1.6,1.5-2.1c11.4-7.7,22.7-15.5,34.1-23.2
	c12.6-8.6,25.3-17.2,37.9-25.8c12.4-8.5,24.8-16.9,37.2-25.4c0.6-0.4,1.1-1,1.9-1C452.5,25.6,454.5,31,456.5,36.3z"/>
<path class="st13" d="M204.6,194.7c-2.8,9.6-5.5,19.2-8.3,28.7c-4.3,14.9-8.6,29.8-12.9,44.8c-0.4,1.4-1,1.8-2.5,1.8
	c-6.8-0.1-13.6-0.1-20.5,0c-1.3,0-1.8-0.3-2.2-1.6c-12.1-42.5-24.2-85.1-36.3-127.6c-0.4-1.5-0.2-1.8,1.3-1.8
	c8.7,0.1,17.5,0.1,26.2,0c1.6,0,2.1,0.5,2.5,2c6.2,24,12.4,48,18.7,72.1c0.1,0.5,0.1,1,0.7,1.4c3.6-12.2,7.2-24.3,10.8-36.4
	c3.7-12.4,7.4-24.9,11.1-37.3c0.4-1.3,1-1.7,2.3-1.7c6.1,0.1,12.2,0.1,18.3,0c1.6,0,2,0.6,2.4,1.9c6.8,23.8,13.7,47.5,20.5,71.3
	c0.2,0.7,0.1,1.6,1,2.1c3.3-12.9,6.7-25.7,10-38.5c3-11.7,6.1-23.3,9-35c0.4-1.4,1-1.8,2.4-1.8c8.9,0.1,17.8,0.1,26.7,0
	c1.7,0,2.1,0.2,1.6,2c-12.1,42.4-24.2,84.8-36.3,127.2c-0.4,1.4-0.9,1.8-2.3,1.7c-6.8-0.1-13.5-0.1-20.3,0c-2.2,0.1-3-0.6-3.6-2.7
	c-6.6-24-13.3-47.9-20-71.9c-0.1-0.3-0.2-0.5-0.3-0.8C204.9,194.7,204.7,194.7,204.6,194.7z"/>
<path class="st13" d="M334.2,136.1c17.1,0.1,32.6,4.9,46.1,15.6c1.2,0.9,1.4,1.5,0.5,2.8c-4.3,6.2-8.4,12.5-12.5,18.8
	c-1,1.5-1.6,1.4-2.9,0.5c-7-4.7-14.4-8.8-22.7-10.9c-5.5-1.3-11.1-1.7-16.6-0.2c-7.2,2-10.4,7.2-9.1,14.3c0.7,3.5,3,5.7,6,7.3
	c4.8,2.7,10.1,4.1,15.3,5.6c8.9,2.5,17.9,4.9,26.3,9c8.7,4.3,16.1,10.1,19,19.9c5.5,18.7,0.6,44.7-29.4,52.1
	c-15.8,3.9-31,1.4-45.9-4.4c-8.8-3.4-16.7-8.3-23.9-14.5c-1-0.9-1.2-1.4-0.3-2.5c4.9-5.9,9.8-11.8,14.6-17.8
	c0.9-1.2,1.5-1.2,2.6-0.3c7.8,6.2,16.2,11.3,26,13.6c6.7,1.6,13.5,2.1,20.2,0.2c7.1-2,10.2-6.8,9.2-14.1c-0.5-3.4-2.6-5.6-5.4-7.2
	c-5.2-3.1-11-4.8-16.8-6.4c-8.3-2.3-16.8-4.2-24.7-7.7c-9.3-4.1-17.1-10-19.8-20.3c-3.8-14.5-2.7-28.3,8-39.9
	c7.4-8.1,17-11.7,27.7-13.1C328.5,136.2,331.3,136,334.2,136.1z"/>
<path class="st13" d="M187.1,374.5c-19,0-38,0-56.9,0c-1.8,0-2.2-0.5-2.2-2.2c0.1-5.1,0.1-10.2,0-15.4c0-1.8,0.4-2.3,2.3-2.3
	c34.3,0.1,68.5,0,102.8,0c3.9,0,7.8,0.1,11.7,0c1.4,0,1.8,0.3,1.8,1.8c-0.1,5.3-0.1,10.7,0,16c0,1.7-0.4,2.1-2.1,2.1
	c-16.9-0.1-33.8,0-50.7,0C191.5,374.5,189.3,374.5,187.1,374.5z"/>
<path class="st10" d="M201.8,414c0,0.1,0,0.1,0,0.2c-0.1-0.1-0.3-0.2-0.4-0.2C201.6,414,201.7,414,201.8,414z"/>
</svg>
