<svg id="Layer_1" enable-background="new 0 0 512 512" height="512" viewBox="0 0 512 512" width="512" xmlns="http://www.w3.org/2000/svg"><g id="Layer_2_00000113337046241226093920000001541278567072672163_"><g id="open"><path d="m495.3 215.6-74.2-74.2c-13.2-13.2-34.6-13.2-47.8 0-13.2 13.2-13.2 34.6 0 47.8l58.4 58.4c4.6 4.6 4.6 12 0 16.6l-58.4 58.4c-13.2 13.2-13.2 34.6 0 47.8 13.2 13.2 34.6 13.2 47.8 0l74.2-74.2c22.3-22.1 22.3-58.3 0-80.6z"/><path d="m138.7 189.3c13.2-13.2 13.2-34.6 0-47.8-13.2-13.2-34.6-13.2-47.8 0l-74.2 74.2c-22.3 22.3-22.3 58.4 0 80.7l74.2 74.2c13.2 13.2 34.6 13.2 47.8 0 13.2-13.2 13.2-34.6 0-47.8l-58.4-58.3c-4.6-4.6-4.6-12 0-16.6z"/><path d="m256 104.3c17.6 0 31.8 14.2 31.8 31.8v239.7c0 17.6-14.2 31.8-31.8 31.8-17.6 0-31.8-14.2-31.8-31.8v-239.7c0-17.5 14.2-31.8 31.8-31.8z"/></g></g></svg>