<svg id="Layer_1" enable-background="new 0 0 512 512" height="512" viewBox="0 0 512 512" width="512" xmlns="http://www.w3.org/2000/svg"><g id="Layer_2_00000023239420111504251040000012511670315518759354_"><g id="refresh"><path d="m511.9 263.6c.3-9.9-3.3-19.4-10.2-26.5-7.5-7.5-17.7-11.7-28.2-11.6-23.8-.4-39.9 20.1-38.9 43.7-1.8 128.1-150.4 207.5-256.9 137.5 39.3-15.1 27.8-75.4-15.6-74.6-14.9-.1-28.6-.2-41.9-.2-14.3 0-28.3.1-41.5.3-22.2.3-38.4 16.2-38.8 37.8-.4 30.7-.4 59.1.1 86.7 1.2 46.1 69.5 49.5 76.8 4.4 42.4 33.1 94.8 51 148.6 50.9 134.7 1.9 250.6-113.4 246.5-248.4z"/><path d="m76.8 244c.4-5.5.6-11.3 1.3-16.5 9.2-64.9 43.1-110.3 100.9-135.1 53.7-23.1 106.5-19 156.9 12.9-40.6 15.9-27.3 76.4 18.9 74.4 27.1.1 50.6.1 75.7 0 46.9-1.3 43.4-38.2 42.8-74.1-.2-16.2.4-32-.1-48.3-1.5-48-68.4-53-77.1-6.5-129.8-104-336.4-40.4-383.8 119.4-7.2 22.7-9.5 46.5-12 69.8-2.9 22.4 15.9 42.3 38.2 41.8 21.1 0 36.8-15.5 38.3-37.8z"/></g></g></svg>