<svg id="Layer_1" height="512" viewBox="0 0 50 50" width="512" xmlns="http://www.w3.org/2000/svg"><g id="XMLID_256_"><path id="XMLID_259_" d="m4.9211 27.8364v-15.6425c0-1.0828-.8778-1.9606-1.9605-1.9606-1.0828 0-1.9606.8778-1.9606 1.9606v25.612c0 1.0828.8778 1.9606 1.9606 1.9606s1.9605-.8778 1.9605-1.9606v-3.673l40.1579-.0944v3.673c0 1.0828.8778 1.9606 1.9605 1.9606s1.9605-.8779 1.9605-1.9607v-3.673-5.1285-1.168z"/><path id="XMLID_258_" d="m49 26.1569h-29.8042v-7.3876c0-2.1401 1.7349-3.875 3.875-3.875h18.1063c4.3205 0 7.8229 3.5024 7.8229 7.8229z"/><circle id="XMLID_257_" cx="12.219" cy="20.526" r="4.787"/></g></svg>