<?xml version="1.0" encoding="utf-8"?>
<!-- Generator: Adobe Illustrator 27.3.1, SVG Export Plug-In . SVG Version: 6.00 Build 0)  -->
<svg version="1.1" id="Calque_1" xmlns="http://www.w3.org/2000/svg" xmlns:xlink="http://www.w3.org/1999/xlink" x="0px" y="0px"
	 viewBox="0 0 1300 238" style="enable-background:new 0 0 1300 238;" xml:space="preserve">
<style type="text/css">
	.st0{fill:#131516;}
	.st1{fill:#4C5B63;}
	.st2{fill:#D9E1EB;}
	.st3{font-family:'Roboto-Bold';}
	.st4{font-size:35.5786px;}
	.st5{fill:#D9D471;}
	.st6{fill:#82AF5D;}
	.st7{fill:#6191C6;}
	.st8{fill:#AB3E3D;}
</style>
<rect class="st0" width="1300" height="238"/>
<g>
	<g>
		<g id="Layer_2_00000010275031354209934580000007999150049656665783_">
			<g id="restaurant">
				<path class="st1" d="M347,44.8c-1.6,0-2.8,1.2-2.8,2.8v15c0,3-2.3,5.3-5.3,5.3V47.7c0-1.6-1.2-2.8-2.8-2.8h-1
					c-1.6,0-2.8,1.2-2.8,2.8v20.3c-3,0-5.3-2.3-5.3-5.3v-15c0-1.6-1.2-2.8-2.8-2.8s-2.8,1.2-2.8,2.8v20.8c0,6.1,3.8,11.5,9.6,13.5
					l-2.3,33.8c-0.3,3.8,2.6,7.1,6.4,7.4c0.2,0,0.3,0,0.4,0c3.8,0,7-3.1,7-7c0-0.2,0-0.3,0-0.4l-2.3-33.8c5.7-2,9.6-7.4,9.6-13.5
					V47.7C349.9,46.1,348.6,44.8,347,44.8L347,44.8z"/>
				<path class="st1" d="M383.6,114.4l-3-63.7c-0.2-3-2.5-5.6-5.6-5.8l0,0h-7c-4.4,0-8,3.6-8,8v21.8c0,3.1,1.8,6,4.7,7.3l7.7,3.5
					l-1.3,29c-0.3,4.7,2.6,8.7,6.2,8.7C381,123.1,383.8,119.1,383.6,114.4L383.6,114.4z"/>
			</g>
		</g>
		<text transform="matrix(1 0 0 1 310.3586 181.3652)" class="st2 st3 st4">eat</text>
		<text transform="matrix(1 0 0 1 360.6492 181.3652)" class="st5 st3 st4">( )</text>
	</g>
	<g>
		<g id="XMLID_256_">
			<path id="XMLID_259_" class="st1" d="M471.4,93.7V52.2c0-2.9-2.3-5.2-5.2-5.2c-2.9,0-5.2,2.3-5.2,5.2v68c0,2.9,2.3,5.2,5.2,5.2
				c2.9,0,5.2-2.3,5.2-5.2v-9.7l106.5-0.3v9.7c0,2.9,2.3,5.2,5.2,5.2c2.9,0,5.2-2.3,5.2-5.2v-9.7V96.5v-3.1L471.4,93.7z"/>
			<path id="XMLID_258_" class="st1" d="M588.2,89.2h-79V69.6c0-5.7,4.6-10.3,10.3-10.3h48c11.5,0,20.7,9.3,20.7,20.7V89.2z"/>
			<circle id="XMLID_257_" class="st1" cx="490.7" cy="74.3" r="12.7"/>
		</g>
		<text transform="matrix(1 0 0 1 464.5305 183.543)" class="st2 st3 st4">sleep</text>
		<text transform="matrix(1 0 0 1 550.7546 183.543)" class="st6 st3 st4">( )</text>
	</g>
	<g>
		<g id="Layer_2_00000113337046241226093920000001541278567072672163_">
			<g id="open">
				<path class="st1" d="M782.5,75.8l-19.1-19.1c-3.4-3.4-9-3.4-12.4,0c-3.4,3.4-3.4,9,0,12.4L766.1,84c1.2,1.2,1.2,3.1,0,4.3
					L751,103.3c-3.4,3.4-3.4,9,0,12.4s9,3.4,12.4,0l19.1-19.1C788.3,90.8,788.3,81.5,782.5,75.8z"/>
				<path class="st1" d="M690.5,69c3.4-3.4,3.4-9,0-12.4c-3.4-3.4-9-3.4-12.4,0L659,75.8c-5.7,5.7-5.7,15.1,0,20.8l19.1,19.1
					c3.4,3.4,9,3.4,12.4,0s3.4-9,0-12.4l-15.1-15.1c-1.2-1.2-1.2-3.1,0-4.3L690.5,69z"/>
				<path class="st1" d="M720.7,47c4.5,0,8.2,3.7,8.2,8.2V117c0,4.5-3.7,8.2-8.2,8.2s-8.2-3.7-8.2-8.2V55.2
					C712.5,50.7,716.1,47,720.7,47L720.7,47z"/>
			</g>
		</g>
		<text transform="matrix(1 0 0 1 664.7722 183.5479)" class="st2 st3 st4">code</text>
		<text transform="matrix(1 0 0 1 742.7312 183.5479)" class="st7 st3 st4">( )</text>
	</g>
	<g>
		<g id="Layer_2_00000023239420111504251040000012511670315518759354_">
			<g id="refresh">
				<path class="st1" d="M960.5,87.3c0.1-1.5-0.5-3-1.6-4.1c-1.1-1.1-2.7-1.8-4.4-1.7c-3.7-0.1-6.1,3-5.9,6.7
					c-0.3,19.6-23,31.8-39.3,21.1c6-2.3,4.3-11.6-2.3-11.4c-2.3,0-4.4,0-6.4,0c-2.2,0-4.4,0-6.4,0.1c-3.4,0.1-5.9,2.4-5.9,5.7
					c-0.1,4.7-0.1,9,0,13.2c0.2,7,10.6,7.6,11.7,0.7c6.5,5,14.5,7.8,22.7,7.7C943.5,125.6,961.1,107.9,960.5,87.3L960.5,87.3z"/>
				<path class="st1" d="M894,84.3c0.1-0.9,0.1-1.7,0.2-2.5c1.4-9.9,6.6-16.9,15.4-20.6c8.2-3.6,16.3-2.9,24,2
					c-6.2,2.4-4.2,11.7,2.9,11.4c4.2,0,7.7,0,11.6,0c7.1-0.2,6.6-5.8,6.5-11.3c0-2.4,0.1-4.9,0-7.4c-0.3-7.3-10.4-8.1-11.8-1
					C922.9,39,891.3,48.7,884,73.1c-1.1,3.5-1.5,7.1-1.8,10.7c-0.4,3.4,2.4,6.4,5.8,6.4C891.4,90.1,893.8,87.7,894,84.3L894,84.3z"
					/>
			</g>
		</g>
		<text transform="matrix(1 0 0 1 853.1658 183.54)" class="st2 st3 st4">repeat</text>
		<text transform="matrix(1 0 0 1 955.7478 183.54)" class="st8 st3 st4">( )</text>
	</g>
</g>
</svg>
