<?xml version="1.0" encoding="utf-8"?>
<!-- Generator: Adobe Illustrator 27.3.1, SVG Export Plug-In . SVG Version: 6.00 Build 0)  -->
<svg version="1.1" id="Calque_1" xmlns="http://www.w3.org/2000/svg" xmlns:xlink="http://www.w3.org/1999/xlink" x="0px" y="0px"
	 viewBox="0 0 862.4 238" style="enable-background:new 0 0 862.4 238;" xml:space="preserve">
<style type="text/css">
	.st0{fill:#131516;}
	.st1{fill:#4C5B63;}
	.st2{fill:#D9E1EB;}
	.st3{font-family:'Roboto-Bold';}
	.st4{font-size:40.8915px;}
	.st5{fill:#D9D471;}
	.st6{fill:#82AF5D;}
	.st7{fill:#6191C6;}
	.st8{fill:#AB3E3D;}
</style>
<rect class="st0" width="862.4" height="238"/>
<g>
	<g>
		<g id="Layer_2_00000010275031354209934580000007999150049656665783_">
			<g id="restaurant">
				<path class="st1" d="M83,33.7c-1.8,0-3.2,1.4-3.2,3.2v17.2c0,3.4-2.7,6.1-6.1,6.1V37c0-1.8-1.4-3.2-3.2-3.2h-1.2
					c-1.8,0-3.2,1.4-3.2,3.2v23.3c-3.4,0-6.1-2.7-6.1-6.1V37c0-1.8-1.4-3.2-3.2-3.2c-1.8,0-3.2,1.4-3.2,3.2v23.9
					c0,7,4.4,13.2,11,15.5l-2.6,38.9c-0.3,4.4,3,8.2,7.4,8.5c0.2,0,0.4,0,0.5,0c4.4,0,8-3.6,8-8c0-0.2,0-0.4,0-0.5l-2.6-38.9
					c6.6-2.3,11-8.5,11-15.5V37C86.3,35.2,84.8,33.7,83,33.7L83,33.7z"/>
				<path class="st1" d="M125,113.7l-3.4-73.2c-0.2-3.5-2.9-6.4-6.4-6.7v0h-8c-5.1,0-9.2,4.1-9.2,9.2v25c0,3.6,2.1,6.9,5.4,8.4
					l8.9,4l-1.5,33.3c-0.3,5.4,3,10,7.1,10C122,123.7,125.3,119.1,125,113.7L125,113.7z"/>
			</g>
		</g>
		<text transform="matrix(1 0 0 1 40.8497 190.6807)"><tspan x="0" y="0" class="st2 st3 st4">eat</tspan><tspan x="57.8" y="0" class="st5 st3 st4">( )</tspan></text>
	</g>
	<g>
		<g id="XMLID_256_">
			<path id="XMLID_259_" class="st1" d="M225.9,89.9V42.2c0-3.3-2.7-6-6-6c-3.3,0-6,2.7-6,6v78.1c0,3.3,2.7,6,6,6s6-2.7,6-6v-11.2
				l122.4-0.3V120c0,3.3,2.7,6,6,6s6-2.7,6-6v-11.2V93.1v-3.6L225.9,89.9z"/>
			<path id="XMLID_258_" class="st1" d="M360.2,84.8h-90.8V62.2c0-6.5,5.3-11.8,11.8-11.8h55.2c13.2,0,23.8,10.7,23.8,23.8V84.8z"/>
			<circle id="XMLID_257_" class="st1" cx="248.1" cy="67.6" r="14.6"/>
		</g>
		<text transform="matrix(1 0 0 1 218.0435 193.184)"><tspan x="0" y="0" class="st2 st3 st4">sleep</tspan><tspan x="99.1" y="0" class="st6 st3 st4">( )</tspan></text>
	</g>
	<g>
		<g id="Layer_2_00000113337046241226093920000001541278567072672163_">
			<g id="open">
				<path class="st1" d="M583.5,69.3l-22-22c-3.9-3.9-10.3-3.9-14.2,0c-3.9,3.9-3.9,10.3,0,14.2l17.3,17.3c1.4,1.4,1.4,3.6,0,4.9
					L547.3,101c-3.9,3.9-3.9,10.3,0,14.2c3.9,3.9,10.3,3.9,14.2,0l22-22C590.1,86.6,590.1,75.9,583.5,69.3z"/>
				<path class="st1" d="M477.7,61.5c3.9-3.9,3.9-10.3,0-14.2c-3.9-3.9-10.3-3.9-14.2,0l-22,22c-6.6,6.6-6.6,17.3,0,23.9l22,22
					c3.9,3.9,10.3,3.9,14.2,0c3.9-3.9,3.9-10.3,0-14.2l-17.3-17.3c-1.4-1.4-1.4-3.6,0-4.9L477.7,61.5z"/>
				<path class="st1" d="M512.5,36.2c5.2,0,9.4,4.2,9.4,9.4v71.1c0,5.2-4.2,9.4-9.4,9.4c-5.2,0-9.4-4.2-9.4-9.4V45.7
					C503,40.5,507.2,36.2,512.5,36.2L512.5,36.2z"/>
			</g>
		</g>
		<text transform="matrix(1 0 0 1 448.1872 193.1888)"><tspan x="0" y="0" class="st2 st3 st4">code</tspan><tspan x="89.6" y="0" class="st7 st3 st4">( )</tspan></text>
	</g>
	<g>
		<g id="Layer_2_00000023239420111504251040000012511670315518759354_">
			<g id="refresh">
				<path class="st1" d="M788.1,82.6c0.1-1.7-0.6-3.4-1.8-4.7c-1.3-1.3-3.1-2.1-5-2c-4.2-0.1-7,3.5-6.8,7.7
					c-0.3,22.5-26.4,36.5-45.2,24.2c6.9-2.7,4.9-13.3-2.7-13.1c-2.6,0-5,0-7.4,0c-2.5,0-5,0-7.3,0.1c-3.9,0.1-6.8,2.8-6.8,6.6
					c-0.1,5.4-0.1,10.4,0,15.2c0.2,8.1,12.2,8.7,13.5,0.8c7.5,5.8,16.7,9,26.1,8.9C768.5,126.6,788.8,106.3,788.1,82.6L788.1,82.6z"
					/>
				<path class="st1" d="M711.6,79.1c0.1-1,0.1-2,0.2-2.9c1.6-11.4,7.6-19.4,17.7-23.7c9.4-4.1,18.7-3.3,27.6,2.3
					c-7.1,2.8-4.8,13.4,3.3,13.1c4.8,0,8.9,0,13.3,0c8.2-0.2,7.6-6.7,7.5-13c0-2.8,0.1-5.6,0-8.5c-0.3-8.4-12-9.3-13.6-1.1
					c-22.8-18.3-59.1-7.1-67.5,21c-1.3,4-1.7,8.2-2.1,12.3c-0.5,3.9,2.8,7.4,6.7,7.3C708.6,85.8,711.4,83,711.6,79.1L711.6,79.1z"/>
			</g>
		</g>
		<text transform="matrix(1 0 0 1 664.7132 193.1806)"><tspan x="0" y="0" class="st2 st3 st4">repeat</tspan><tspan x="117.9" y="0" class="st8 st3 st4">( )</tspan></text>
	</g>
</g>
</svg>
