<?xml version="1.0" encoding="utf-8"?>
<!-- Generator: Adobe Illustrator 27.3.1, SVG Export Plug-In . SVG Version: 6.00 Build 0)  -->
<svg version="1.1" id="Capa_1" xmlns="http://www.w3.org/2000/svg" xmlns:xlink="http://www.w3.org/1999/xlink" x="0px" y="0px"
	 viewBox="0 0 512 512" style="enable-background:new 0 0 512 512;" xml:space="preserve">
<style type="text/css">
	.st0{fill:#DB5E85;}
	.st1{fill:#AF2243;}
	.st2{fill:#FFFFFF;}
</style>
<path class="st0" d="M424,307.3v42c0,11-35.9,27.1-92.2,27.1c-20.8,0-38.8-2.2-53.2-5.5V322c16.2,3.4,34.7,5.1,53.2,5.1
	C368.3,327.1,405.2,320.3,424,307.3z"/>
<path class="st0" d="M424,245.1v42c0,11-35.9,27.1-92.2,27.1c-20.8,0-38.8-2.2-53.2-5.5v-48.9c16.2,3.4,34.7,5.1,53.2,5.1
	C368.3,264.8,405.2,258.1,424,245.1z"/>
<path class="st0" d="M424,182.9v42c0,11-35.9,27.1-92.2,27.1c-20.8,0-38.8-2.2-53.2-5.5v-48.9c16.2,3.4,34.7,5.1,53.2,5.1
	C368.3,202.6,405.2,195.9,424,182.9z"/>
<path class="st0" d="M424,162.7c0,11-35.9,27.1-92.2,27.1c-20.8,0-38.8-2.2-53.2-5.5v-43.1c14.4-3.3,32.4-5.5,53.2-5.5
	C388.1,135.6,424,151.6,424,162.7z"/>
<polygon class="st1" points="278.8,112 278.8,400 99.3,368.5 99.3,143.5 "/>
<path class="st2" d="M176.8,197.5h18l39.8,104.5h-20.9l-9.7-26.1h-36.5l-9.6,26.1h-20.9L176.8,197.5z M200.2,261.7l-14.4-41.1
	l-15,41.1L200.2,261.7L200.2,261.7L200.2,261.7z"/>
</svg>
