<?xml version="1.0" encoding="utf-8"?>
<!-- Generator: Adobe Illustrator 27.3.1, SVG Export Plug-In . SVG Version: 6.00 Build 0)  -->
<svg version="1.1" id="Capa_1" xmlns="http://www.w3.org/2000/svg" xmlns:xlink="http://www.w3.org/1999/xlink" x="0px" y="0px"
	 viewBox="0 0 512 512" style="enable-background:new 0 0 512 512;" xml:space="preserve">
<style type="text/css">
	.st0{fill:#962C87;}
	.st1{fill:#FFFFFF;}
</style>
<g>
	<path class="st0" d="M483.8,361.5c0,8.4-1.8,15.9-5.3,22.3c-3.7,6.6-9.2,12.1-16.7,16.5c-60.6,35-121.4,69.8-182,104.8
		c-16.3,9.4-32.2,9.1-48.4-0.5c-24.1-14.2-145-83.5-181-104.3c-7.5-4.3-13.1-9.9-16.7-16.5c-3.6-6.4-5.3-13.9-5.3-22.3
		c0-70.3,0-140.6,0-211c0-17.1,7.2-30.2,22-38.8c36-20.9,156.9-90.1,181-104.3c16.2-9.6,32.1-9.9,48.4-0.5
		c60.6,35,121.3,69.9,182,104.8c7.3,4.2,12.8,9.6,16.5,16.1c3.7,6.5,5.6,14.1,5.6,22.8C483.8,220.8,483.8,361.5,483.8,361.5z"/>
	<path class="st1" d="M321.6,292.9c-12.9,22.9-37.5,38.4-65.6,38.4c-28,0-52.4-15.3-65.4-38c-6.3-11-9.9-23.8-9.9-37.4
		c0-41.6,33.7-75.3,75.3-75.3c27.8,0,52.1,15.1,65.2,37.5l65.8-37.9c-26.2-45.2-75-75.6-131-75.6c-83.6,0-151.3,67.7-151.3,151.3
		c0,27.4,7.3,53.1,20,75.3c26.1,45.4,75.1,76,131.2,76c56.2,0,105.3-30.7,131.4-76.3L321.6,292.9z"/>
	<path class="st1" d="M450.2,247.3v-15H438v-12.2h-15v12.2h-18.2v-12.2h-15v12.2h-12.2v15h12.2v18.2h-12.2v15h12.2v12.2h15v-12.2
		h18.2v12.2h15v-12.2h12.2v-15H438v-18.2L450.2,247.3L450.2,247.3z M423.1,265.6h-18.2v-18.2h18.2V265.6z"/>
</g>
</svg>
