<?xml version="1.0" encoding="utf-8"?>
<!-- Generator: Adobe Illustrator 27.3.1, SVG Export Plug-In . SVG Version: 6.00 Build 0)  -->
<svg version="1.1" id="Capa_1" xmlns="http://www.w3.org/2000/svg" xmlns:xlink="http://www.w3.org/1999/xlink" x="0px" y="0px"
	 viewBox="0 0 512 512" style="enable-background:new 0 0 512 512;" xml:space="preserve">
<style type="text/css">
	.st0{fill:#004CE8;}
	.st1{fill:#9DB0BF;}
	.st2{fill:#FFFFFF;}
</style>
<g>
	<path id="polygon2989_00000091712160093483359120000013545222466388029605_" class="st0" d="M437.4,100.6l-33,370.2L255.8,512
		l-148.1-41.1l-33-370.3L437.4,100.6z"/>
	<path id="path2999_00000183935336956994173500000009856227378309738643_" class="st1" d="M160,0h55v23h-32v23h32v23h-55V0z"/>
	<path id="path3001_00000096055226761582317920000005110122629658984122_" class="st1" d="M226,0h55v20h-32v4h32v46h-55V49h32v-4
		h-32V0z"/>
	<path id="path3003_00000136402835624896882680000006132478931596835508_" class="st1" d="M292,0h55v20h-32v4h32v46h-55V49h32v-4
		h-32V0z"/>
	<polygon class="st2" points="369.6,176.3 361.4,268.2 360.3,280.4 349.6,400 348.9,407.6 256,433.4 255.8,433.4 255.8,433.5 
		162.8,407.6 156.4,336.3 202,336.3 205.2,372.5 255.8,386.2 255.8,386.2 256,386.1 306.5,372.5 311.8,313.6 154.4,313.6 
		150.3,268.2 315.7,268.2 319.8,221.7 146.3,221.7 142.1,176.3 	"/>
</g>
</svg>
