<?xml version="1.0" encoding="utf-8"?>
<!-- Generator: Adobe Illustrator 27.3.1, SVG Export Plug-In . SVG Version: 6.00 Build 0)  -->
<svg version="1.1" id="Calque_1" xmlns="http://www.w3.org/2000/svg" xmlns:xlink="http://www.w3.org/1999/xlink" x="0px" y="0px"
	 viewBox="0 0 1405 2500" style="enable-background:new 0 0 1405 2500;" xml:space="preserve">
<style type="text/css">
	.st0{fill:#F6D2A2;}
	.st1{fill:#010101;}
	.st2{fill:#C7B199;}
	.st3{fill:#74CDDD;}
	.st4{fill:#FFFFFF;}
	.st5{fill:#231F20;}
</style>
<g transform="translate(8)">
	<path class="st0" d="M61,1321.9c2.5,52.2,55.3,27.6,78.2,11.6s27.6-2.5,30.9-33.2c2-20,2.9-40.1,2.5-60.2
		c-34.8-3.6-69.8,5.3-98.6,25.1c-14.4,10.5-41.2,43.7-13.3,55.3"/>
	<path class="st1" d="M88.1,1359.7c-5.2,0.1-10.3-1.1-14.9-3.3c-10.8-6.2-17.4-17.9-17.1-30.4c-6.9-3.5-11.6-10.2-12.4-18
		c2-18.6,12.1-35.4,27.6-45.9c29.8-20.5,66-29.7,102-26h4.1v4.1c0.6,15.8,0.1,31.5-1.4,47.3v13.8c-1.4,21.6-5.5,24.9-16.6,27.6
		c-5.9,1.8-11.5,4.5-16.6,8C126.9,1349.3,108,1357.2,88.1,1359.7z M158.3,1245.6c-29-0.4-57.4,8.3-81.2,24.9
		c-12.5,8.6-20.9,22-23.2,37c0.7,5.3,4.3,9.7,9.4,11.3H66v3c-0.8,9.8,3.6,19.2,11.6,24.9c21.2,3.3,42.7-3,58.9-17.1
		c5.8-4,12.1-7.2,18.8-9.4c7.2-2.5,8.8-3,9.9-20.2v-13.8c1.3-13.8,1.8-27.6,1.7-41.4h-8.6V1245.6z"/>
	<path class="st2" d="M61,1321.9c7.9-1.7,15.1-5.8,20.7-11.6"/>
	<path class="st1" d="M61,1326.8c-2.7,0.8-5.5-0.6-6.4-3.3c-0.8-2.7,0.6-5.5,3.3-6.4h3.3c5.8-1.4,11.1-4.4,15.2-8.8
		c1.7-2.2,4.8-2.6,7-1c2.2,1.7,2.6,4.8,1,7l0,0c-5.2,6-12.2,10.2-19.9,12.2H61V1326.8z"/>
	<path class="st3" d="M181.5,700.4C-18.3,645.1,130.4,390.1,292,494.5L181.5,700.4z"/>
	<path class="st1" d="M184,706.2h-3.9c-56.9-16-92-49.7-98.6-94.8c-4.8-49.9,19.1-98.3,61.6-124.9c46.4-29.3,106-27.4,150.3,5
		l3.9,2.5L184,706.2z M211.6,474.6c-22.7,0-44.9,6.7-63.8,19.1c-39.4,24.4-61.5,69.1-57.2,115.2c6.1,40.1,37,70.5,87.6,85.7
		l105-198.1c-21.2-13.3-45.7-20.5-70.7-21L211.6,474.6z"/>
	<path class="st3" d="M1069.1,475.5C1227.1,364.9,1370,613.6,1186.2,678L1069.1,475.5z"/>
	<path class="st1" d="M1184,684.1l-121.6-210l3.6-2.5c41.4-33.2,98.7-38,145.1-12.2c43.6,25.5,69.1,73.4,66,123.8
		c-2.8,27.6-17.7,74.9-89.3,99.5L1184,684.1z M1075.7,476.9l112.7,195.1c41.8-11.3,72.8-46.6,78.8-89.5
		c2.9-46.7-20.7-91.1-61.1-114.7C1164.8,444.1,1113.3,447.7,1075.7,476.9L1075.7,476.9z"/>
	<path class="st0" d="M1103,1964c40.1,24.9,113.6,100,53.3,136.5c-57.8,53.1-90.4-58.3-141.2-73.5
		C1034.9,1995.2,1066.5,1972.5,1103,1964z"/>
	<path class="st1" d="M1125.7,2119.6h-2.2c-22.9-1.4-41.7-23.8-60-45c-12.6-18.3-29.7-33.1-49.7-42.8l-6.6-1.9l4.1-6.9
		c20.6-32.8,53.2-56.1,90.9-64.9h3.6c25.7,16,78.8,62.4,78.5,104.5c-0.3,16.9-9.9,32.3-24.9,40.1
		C1150.9,2112.4,1138.8,2118.5,1125.7,2119.6z M1022.9,2024.6c18.7,11,35,25.8,47.8,43.4c12.1,19.8,30.9,34.7,53.1,41.7
		c10.6-0.5,20.5-5.1,27.6-13c12.3-6,20.2-18.4,20.4-32.1c0-33.7-42.6-76-72.1-95.1c-31.5,8.1-58.8,27.7-76.5,55H1022.9z"/>
	<path class="st1" d="M1156.4,2105.8c-1.9,0-3.6-1.1-4.4-2.8c-2.9-6.1-5.5-12.4-7.7-18.8c-3.4-12.5-9.6-24.1-18.2-33.7
		c-2-1.9-2-5.1-0.1-7c1.9-2,5.1-2,7-0.1c9.5,10.4,16.5,22.9,20.4,36.5c2.2,6,4.7,11.9,7.5,17.7c1.2,2.4,0.2,5.4-2.2,6.6
		L1156.4,2105.8z"/>
	<path class="st0" d="M385.4,2048.9c-47.3,7.2-73.8,49.7-113,71.3c-13.9,12.8-35.6,12-48.4-1.9c-3-3.2-5.3-7-6.8-11.1
		c-5.6,0.1-10.9-2.3-14.4-6.6c-34.3-55.3,35.6-93.7,72.4-120.8C326.8,1969.8,358.6,2013.8,385.4,2048.9L385.4,2048.9z"/>
	<path class="st1" d="M247.5,2133.4c-2.9,0.4-5.9,0.4-8.8,0c-10.5-3.4-19.1-10.9-24-20.7c-5.4,0-10.5-2.7-13.5-7.2
		c-33.2-52.2,23.2-91.7,60.5-118l13-9.4c52.2-10.5,85.4,32.6,111.9,67.4l7.5,9.9h-8.3c-26.7,6.4-50.9,20.3-69.9,40.1
		c-12.7,11.7-26.6,22.1-41.4,30.9C266.1,2131.1,256.9,2133.4,247.5,2133.4z M214.4,2101.4c1.9-0.4,3.9-0.4,5.8,0h1.4l2.2,4.4
		c3.6,7.9,10.3,14,18.5,16.9c9.7,1.5,19.6-0.9,27.6-6.6c14.3-8.6,27.8-18.6,40.1-29.8c18.7-18.6,41.5-32.6,66.6-40.6
		c-25.4-33.2-55.3-69.1-98.6-60.8l-12.4,8.8c-38.1,27.6-85.4,60.2-58,104.2c1.2,2.1,3.4,3.5,5.8,3.9L214.4,2101.4z"/>
	<path class="st1" d="M218,2112.4c-2.7,0.2-5.1-1.9-5.3-4.7c0-0.7,0.1-1.3,0.3-2c2-13.3,7.6-25.8,16-36.2c4-5.5,7.5-11.3,10.5-17.4
		c1.1-2.5,4.1-3.6,6.6-2.5c2.5,1.1,3.6,4.1,2.5,6.6c-3.2,6.7-7,13.1-11.3,19.1c-7.3,9.4-12,20.5-13.5,32.3c-0.1,2.7-2.4,4.9-5.2,4.8
		C218.4,2112.5,218.2,2112.5,218,2112.4L218,2112.4z M189.8,630.2c-27.6-13.8-45.6-32.9-29.6-63.3s42.6-25.1,69.1-11.3L189.8,630.2z
		 M1144.5,603.7c27.6-13.8,45.6-32.9,29.6-63.3c-16-30.4-42.6-25.1-69.1-11.3L1144.5,603.7z"/>
	<path class="st0" d="M1326,1315.2c-2.5,52.2-55.3,27.6-78.2,11.6c-22.9-16-27.6-2.5-30.9-33.2c-2-20-2.9-40.1-2.5-60.2
		c34.8-3.6,69.8,5.3,98.6,25.1c14.4,10.5,41.2,43.7,13.3,55.3"/>
	<path class="st1" d="M1299,1352c-19-2.1-37.1-8.9-52.8-19.9c-5.1-3.5-10.7-6.2-16.6-8c-11.1-3.9-15.2-7.2-16.6-27.6v-13.8
		c-1.5-15.7-2-31.5-1.4-47.3v-6.6h4.1c36-3.8,72.2,5.5,102,26c15.5,10.5,25.6,27.3,27.6,45.9c-0.8,7.7-5.5,14.5-12.4,18
		c0.3,12.5-6.3,24.1-17.1,30.4C1310.6,1351.4,1304.8,1352.4,1299,1352L1299,1352z M1218.6,1238.1c-0.2,13.8,0.4,27.7,1.7,41.4v13.8
		c0,16.9,2.5,17.4,9.9,20.2c6.7,2.2,13,5.4,18.8,9.4c16.1,14.2,37.7,20.5,58.9,17.1c8-5.6,12.4-15.1,11.6-24.9v-3.3h2.8
		c5-1.7,8.7-6.1,9.4-11.3c-2.3-15-10.7-28.4-23.2-37C1282.2,1245.1,1250.5,1236.2,1218.6,1238.1L1218.6,1238.1z"/>
	<path class="st2" d="M1326,1315.2c-7.8-1.5-15-5.3-20.7-10.8"/>
	<path class="st1" d="M1326,1320.2h-5.3c-7.7-2.5-14.5-7.3-19.3-13.8c-1.7-2.2-1.2-5.4,1-7c2.2-1.7,5.4-1.2,7,1
		c4.1,4.4,9.4,7.5,15.2,8.8h3.3c3.1,0.5,5.1,3.4,4.6,6.5C1332,1318.7,1329.1,1320.7,1326,1320.2z"/>
	<path class="st3" d="M673.6,369.9c200.1,0,386.9,27.6,485.2,221.1c87.6,215.3,55.3,447.6,69.9,675.1
		c11.6,195.4,37,421.1-53.6,602.4c-94.8,190.1-334.1,237.4-530.3,231c-154.2-5.5-340.4-55.3-427.5-196.7
		c-102.2-165.8-53.9-411.2-46.4-594.9c8.8-217.7-59.1-436.3,12.4-649.6C257.8,437.1,457.8,387,673.4,369.9"/>
	<path class="st1" d="M678.9,2105.8h-34.3c-82.4-2.3-163.7-18.6-240.7-48.1c-78.3-28.4-145.3-81.4-190.9-151.2
		c-82.9-133.7-68-318.3-55.3-481.4c3.3-40.9,6.4-79.9,7.7-116.3c1.5-77.3-1.9-154.7-9.9-231.6c-11.6-138.2-23.8-281,22.7-419.5
		c30.3-98.3,100.5-179.4,193.4-223.5c74.6-36.5,165.8-57.5,299.8-68c197.3-1.4,391.8,26.3,491.9,222.2
		c64.1,157.5,64.9,326.6,66,490.2c0,61.3,0,124.6,4.4,186.5c0,18.8,2.2,37.9,3.6,56.9c11.6,179.3,24.9,383-57.8,547.7
		C1076.2,2076,816.5,2105.8,678.9,2105.8z M673.6,374.9c-208.1,17.7-410.9,62.4-485.5,284.9c-45.9,136.5-33.7,278.3-22.4,414.5
		c8.1,77.3,11.4,155,9.9,232.7c-1.4,36.8-4.7,75.7-7.7,116.9c-12.7,161.4-27.6,344.6,53.3,475.3c34,55.3,143.4,184.3,423.6,193.4
		c121.3,4.4,414.5-9.4,525-228.8c81.2-162.5,68.3-364.5,56.6-542.7c0-19.3-2.5-38.4-3.6-56.9c-3-60.2-4.4-123.8-4.4-185.1
		c0-162.5-1.7-331.6-65.2-486.3c-40.9-84.1-113.3-148.7-201.4-179.9C862,384.3,767.9,371.5,673.6,374.9z"/>
	<path class="st4" d="M708.7,638.2c35.9,208.6,376.9,153.6,328-56.9C992.8,392.6,696.8,444.8,708.7,638.2"/>
	<path class="st1" d="M870.9,774.5c-21.2,0.1-42.3-3.4-62.4-10.2c-55.8-18.5-96.3-67-104.5-125.2c-3.8-45.2,11.9-89.8,43.1-122.7
		c29.6-30.3,68.5-49.8,110.5-55.3c38.5-6.1,77.9,0.7,112.2,19.3c36.9,21.6,63,57.8,71.6,99.8c15.2,53.4-1.3,110.9-42.6,148.1
		C963.2,758.7,917.8,775.1,870.9,774.5L870.9,774.5z M713.7,637.7c7.7,54.6,45.7,100.1,98.1,117.4c62.2,20.8,130.7,7.8,181-34.3
		c38-35,53.2-88.3,39.5-138.2c-17.6-78.2-94.4-128-173-112.2C773.6,477.8,709.2,551.8,713.7,637.7L713.7,637.7z"/>
	<path class="st4" d="M301.1,672.2c46.4,181.5,337.1,134.8,326.3-47.3C614.5,406.7,256.7,447.8,301.1,672.2"/>
	<path class="st1" d="M456.4,791.9c-29.6,0.2-58.7-6.9-84.8-20.7c-37.8-20.5-65.1-56.2-74.9-98.1c-14.7-57.7,5.6-118.7,51.9-156.1
		c55.9-42.6,130.3-52.1,195.1-24.9c52.9,23.1,87.4,74.9,88.4,132.6c5.8,96.7-71,153.1-144.5,165.8
		C477.3,791.8,466.9,792.2,456.4,791.9L456.4,791.9z M306.7,671.1c19.9,79.9,100.2,129.1,180.4,110.5
		c69.6-11.1,142.3-64.1,136.8-155c-0.7-54.3-33.1-103.2-82.9-124.9c-61.6-25.9-132.3-16.8-185.4,23.8
		C312.5,560.5,293.4,617.2,306.7,671.1L306.7,671.1z"/>
	<path class="st4" d="M748.8,890c2.7,28.8,2.7,57.7,0,86.5c-8.1,10.2-19.5,17.3-32.3,19.9c-16-2.5-29.6-12.9-36.2-27.6
		c-1.8-32.6-0.9-65.3,2.5-97.8L748.8,890z"/>
	<path class="st1" d="M719.5,1000.5h-1.4c-17.9-2.8-33-14.6-40.1-31.2c-2.3-22.3-2.3-44.8,0-67.1c0-10.2,1.7-21,1.9-31.5v-8.3
		l74.6,22.9v4.7c0,8.8,0,18.2,1.4,27.6c2.5,19.7,2.5,39.7,0,59.4v1.4c-5.9,9.6-15.3,16.3-26.3,18.8l-8.6,3.3H719.5z M687.5,965.7
		c5.6,12.8,17.2,22,30.9,24.6l7.7-3c8.3-2,15.6-7.2,20.2-14.4c2.2-18.4,2.2-36.9,0-55.3c0-8.6,0-16.9-1.4-25.1l-55.3-16.9
		c0,8.6,0,17.1-1.7,25.4c-2.4,21.4-2.7,42.9-0.8,64.4L687.5,965.7z"/>
	<ellipse class="st1" cx="381.3" cy="642.4" rx="49.2" ry="53.3"/>
	<ellipse class="st4" cx="403.7" cy="654.5" rx="11.6" ry="13.5"/>
	<ellipse class="st1" cx="793" cy="629.1" rx="48.4" ry="53.3"/>
	<ellipse class="st4" cx="814.8" cy="641.3" rx="11.3" ry="13.5"/>
	<path class="st4" d="M610.6,885.8c-21.6,51.9,11.9,155.8,70.2,79.3c-1.8-32.6-0.9-65.3,2.5-97.8L610.6,885.8z"/>
	<path class="st1" d="M640.8,997.5c-5.1,0-10-1.3-14.4-3.9c-23.5-13.5-38.1-69.1-21.6-110.5v-2.2l82.9-21v6.6
		c0,10.8,0,21.6-1.9,31.8c-2.3,21.7-2.3,43.5,0,65.2v3.6C676.7,984,659.9,995.4,640.8,997.5z M613.4,890
		c-11.9,32.3-2.5,82.9,18.2,94.8c14.9,8.6,31.5-6.4,43.1-21.3c-2.1-21.7-2.1-43.5,0-65.2c0-8,0-16.6,1.7-24.9L613.4,890z"/>
	<path class="st0" d="M617,785.8c-34.8,3.3-60.3,34.2-57,69c0.6,6.7,2.3,13.3,5.1,19.4c27.6,49.7,89-4.4,127.1,0
		c43.9,0,80.1,46.4,115.5,8.3c39.2-42.6-16.9-82.9-60.8-102.5L617,785.8z"/>
	<path class="st5" d="M776.4,903.5c-14-1.2-27.7-5-40.3-11.3c-13.7-6.7-28.5-10.9-43.7-12.2c-15.8,0-31.5,3.4-45.9,9.9
		c-30.9,10.8-66,22.9-85.9-12.7c-10-18-10-40,0-58c10.9-21.1,31.7-35.3,55.3-37.9l132.9-5.8c32.6,13.8,69.9,39,76.3,68.3
		c3.9,28.9-16.4,55.5-45.3,59.3C778.7,903.3,777.6,903.4,776.4,903.5L776.4,903.5z M693.5,870.1c16.3,1.3,32.3,5.7,47,13
		c24.9,10.5,44.5,18.5,64.4-3c9.2-8.5,13.5-21.1,11.3-33.4c-5.5-25.4-40.6-48.6-69.4-60.8L618.4,791c-20.1,2.5-37.7,14.7-47,32.6
		c-8.3,15-8.3,33.3,0,48.4c15.8,27.6,43.9,18.5,74.1,8.3C660.6,873.5,677,870,693.5,870.1L693.5,870.1z"/>
	<path class="st1" d="M610.6,783.9c-3-69.1,129-77.9,144.5-19.9S617,835.3,610.6,783.9z"/>
</g>
</svg>
