<?xml version="1.0" encoding="utf-8"?>
<!-- Generator: Adobe Illustrator 27.3.1, SVG Export Plug-In . SVG Version: 6.00 Build 0)  -->
<svg version="1.1" id="Capa_1" xmlns="http://www.w3.org/2000/svg" xmlns:xlink="http://www.w3.org/1999/xlink" x="0px" y="0px"
	 viewBox="0 0 512 512" style="enable-background:new 0 0 512 512;" xml:space="preserve">
<style type="text/css">
	.st0{fill:#9DB0BF;}
	.st1{fill:#FF4C1E;}
	.st2{fill:#FFFFFF;}
</style>
<g>
	<path class="st0" d="M108.4,0h23v22.8h21.2V0h23v69h-23V46h-21v23h-23.2L108.4,0z M206,23h-20.3V0h63.7v23H229v46h-23V23z M259.5,0
		h24.1l14.8,24.3L313.2,0h24.1v69h-23V34.8l-16.1,24.8l-16.1-24.8V69h-22.6L259.5,0z M348.7,0h23v46.2h32.6V69h-55.6V0z"/>
	<path class="st1" d="M107.6,471l-33-370.4h362.8l-33,370.2L255.7,512"/>
	<polygon class="st2" points="365.4,221.7 191.8,221.7 196,268.2 361.3,268.2 348.8,407.6 256.2,433.3 256,433.6 162.8,407.6 
		156.4,336.3 202,336.3 205.2,372.6 255.9,386.2 306.5,372.6 311.8,313.6 255.8,313.6 255.8,313.5 154.4,313.5 142,176.3 
		369.6,176.3 	"/>
</g>
</svg>
