<?xml version="1.0" encoding="utf-8"?>
<!-- Generator: Adobe Illustrator 27.3.1, SVG Export Plug-In . SVG Version: 6.00 Build 0)  -->
<svg version="1.1"
	 id="svg64" xmlns:sodipodi="http://sodipodi.sourceforge.net/DTD/sodipodi-0.dtd" xmlns:inkscape="http://www.inkscape.org/namespaces/inkscape" xmlns:svg="http://www.w3.org/2000/svg" xmlns:cc="http://creativecommons.org/ns#" xmlns:dc="http://purl.org/dc/elements/1.1/" xmlns:rdf="http://www.w3.org/1999/02/22-rdf-syntax-ns#" inkscape:version="0.92.2 2405546, 2018-03-11"
	 xmlns="http://www.w3.org/2000/svg" xmlns:xlink="http://www.w3.org/1999/xlink" x="0px" y="0px" viewBox="0 0 397.3 559.5"
	 style="enable-background:new 0 0 397.3 559.5;" xml:space="preserve">
<style type="text/css">
	.st0{fill:#F0BE25;}
	.st1{fill:#FEFEFE;}
	.st2{fill:#9DB0BF;}
</style>
<sodipodi:namedview  bordercolor="#666666" borderopacity="1" fit-margin-bottom="0" fit-margin-left="0" fit-margin-right="0" fit-margin-top="0" gridtolerance="10" guidetolerance="10" id="namedview66" inkscape:current-layer="svg64" inkscape:cx="364.99449" inkscape:cy="300.83113" inkscape:pageopacity="0" inkscape:pageshadow="2" inkscape:window-height="1016" inkscape:window-maximized="1" inkscape:window-width="1920" inkscape:window-x="0" inkscape:window-y="27" inkscape:zoom="1.0628712" objecttolerance="10" pagecolor="#ffffff" showgrid="false">
	</sodipodi:namedview>
<g>
	
		<path id="path80" inkscape:connector-curvature="0" sodipodi:nodetypes="ccsccccccscccccscscsccsssccscscssccccsccscsscccccccc" class="st0" d="
		M396,109.3H1.3l0.1,5c0,2.8,8,93.8,17.7,202.3L36.7,514l79.3,22.2c43.6,12.2,80.2,22.3,81.3,22.3c1.1,0.1,38.2-9.9,82.4-22.1
		c70.9-19.6,80.4-22.6,81-25c0.7-3.4,35.4-394.9,35.4-399.1L396,109.3z M229.7,292c80.5,0,85.1,0.1,84.5,2.3
		c-0.4,1.3-3.5,35.2-7,75.4c-3.5,40.2-6.8,73.7-7.3,74.5c-0.5,0.8-23.3,7.6-50.7,15.3c-27.4,7.6-50.7,13.8-51.8,13.8
		c-3-0.1-99.9-27.3-100.9-28.4c-0.9-0.9-7-63.9-7-73.2l-0.1-5h50.5l0.8,8.3c0.5,4.6,1.2,13.4,1.8,19.5l1,11.2l26,7.1
		c14.3,3.9,27.2,7.1,28.6,7.2c3.1,0,53-13.3,54.2-14.5c0.5-0.4,1.8-12.5,3-26.8c1.2-14.3,2.5-28.2,2.9-31l0.8-5H89.3v-3.2
		c0-4,13-149.8,14.7-164.8c0.7-6.2,1.3-12.1,1.3-13c0-1.3,20.4-1.6,99.6-1.3l99.6,0.3l4.3,48c2.3,26.4,4.5,50.5,4.9,53.7l0.6,5.7
		h-25.8c-25.5,0-25.8,0-25.8-2.8c0-5.7-4.2-47.2-4.9-47.8c-1.7-1.7-53.2-3.7-78.1-3c-15.2,0.4-27.7,0.8-27.8,0.9
		c-0.1,0.1-1.7,17.4-3.7,38.5l-3.6,38.3H229.7z"/>
	<path class="st1" d="M314.2,294.3c-0.4,1.3-3.5,35.2-7,75.4c-3.5,40.2-6.8,73.7-7.3,74.5c-0.5,0.8-23.3,7.6-50.7,15.3
		c-27.4,7.6-50.7,13.8-51.8,13.8c-3-0.1-99.9-27.3-100.9-28.4c-0.9-0.9-7-63.9-7-73.2l-0.1-5h50.5l0.8,8.3
		c0.5,4.6,1.2,13.4,1.8,19.5l1,11.2l26,7.1c14.3,3.9,27.2,7.1,28.6,7.2c3.1,0,53-13.3,54.2-14.5c0.5-0.4,1.8-12.5,3-26.8
		c1.2-14.3,2.5-28.2,2.9-31l0.8-5H89.3v-3.2c0-4,13-149.8,14.7-164.8c0.7-6.2,1.3-12.1,1.3-13c0-1.3,20.4-1.6,99.6-1.3l99.6,0.3
		l4.3,48c2.3,26.4,4.5,50.5,4.9,53.7l0.6,5.7h-25.8c-25.5,0-25.8,0-25.8-2.8c0-5.7-4.2-47.2-4.9-47.8c-1.7-1.7-53.2-3.7-78.1-3
		c-15.2,0.4-27.7,0.8-27.8,0.9c-0.1,0.1-1.7,17.4-3.7,38.5l-3.6,38.3h85.2C310.2,292,314.8,292.1,314.2,294.3z"/>
	<path id="path76" inkscape:connector-curvature="0" class="st2" d="M126.7,62V49.3h18h18V24.7V0h12.7H188v37.3v37.3h-30.7h-30.7V62
		z M200,64.7v-10h16.7c9.2,0,16.7-0.3,16.7-0.8s-7.5-8.9-16.7-18.8L200,17V8.5V0h34.7h34.7v10v10l-16.3,0.4l-16.3,0.4l16.9,18.2
		l16.9,18.2v8.8v8.8h-35.3H200V64.7z"/>
</g>
</svg>
