<?xml version="1.0" encoding="utf-8"?>
<!-- Generator: Adobe Illustrator 27.3.1, SVG Export Plug-In . SVG Version: 6.00 Build 0)  -->
<svg version="1.1" id="Calque_1" xmlns="http://www.w3.org/2000/svg" xmlns:xlink="http://www.w3.org/1999/xlink" x="0px" y="0px"
	 viewBox="0 0 218 218" style="enable-background:new 0 0 218 218;" xml:space="preserve">
<style type="text/css">
	.st0{fill:#0A0A0A;}
	.st1{fill:#FFFFFF;}
</style>
<g>
	<path class="st0" d="M218,0H0v218h218L218,0L218,0z"/>
	<path class="st1" d="M105.6,177.2H23.8v13.7h81.8V177.2z M20.3,56.3l6-5.7c1.6,2,3.3,3.1,5.4,3.1c2.3,0,3.9-1.6,3.9-4.7V27.5h9.4
		v21.6c0,4.2-1.1,7.3-3.4,9.6c-2.3,2.3-5.4,3.4-9.3,3.4C26.4,62,22.8,59.5,20.3,56.3L20.3,56.3z M49.1,27.3h27.5v8H58.6v5.2h16.3V48
		H58.6v5.4h18.2v8H49.1L49.1,27.3L49.1,27.3z M90,35.6H79.7v-8.3h29.8v8.3H99.4v25.7H90V35.6L90,35.6z M24.1,74.8h16.1
		c4.2,0,7.3,1.1,9.3,3.1c1.3,1.5,2.1,3.3,2.1,5.5v0.2c0,3.9-2.3,6.3-5.2,7.6c4.1,1.3,6.8,3.7,6.8,8.3v0.2c0,5.9-4.7,9.4-12.9,9.4
		H24.2V74.8L24.1,74.8L24.1,74.8z M42.3,85.2c0-2-1.5-2.9-4.2-2.9h-4.7v6h4.6C40.7,88.3,42.3,87.4,42.3,85.2L42.3,85.2z M39,95h-5.9
		v6.3H39c2.9,0,4.6-1.1,4.6-3.1v-0.2C43.8,96.1,42.3,95,39,95z M56.1,74.8h15.1c5.2,0,8.8,1.3,11.1,3.6c2,2,3.1,4.6,3.1,8v0.2
		c0,5.2-2.8,8.6-7,10.6l8.1,11.9H75.6l-6.8-10.3h-3.1V109h-9.4V74.8L56.1,74.8L56.1,74.8z M70.9,91.1c3.1,0,5-1.6,5-4.1v-0.2
		c0-2.8-2-4.1-5-4.1h-5.2v8.3H70.9z"/>
	<path class="st1" d="M98.4,74.5h9.1l14.5,34.3h-10.1l-2.4-6.2H96.3l-2.4,6.2h-9.8L98.4,74.5z M106.7,95.3l-3.7-9.6l-3.9,9.6H106.7z
		 M132.9,74.7h-9.4v34h9.4V74.7z M136.5,74.7h8.8l12.4,18.1V74.7h9.3v34h-8.3l-12.7-18.5v18.5h-9.4
		C136.5,108.7,136.5,74.7,136.5,74.7z M168.5,103.6l5.2-6.3c3.4,2.6,7.2,4.1,11.1,4.1c2.6,0,3.9-0.8,3.9-2.3v-0.2
		c0-1.5-1.1-2.1-5.9-3.3C175.5,94,170,91.9,170,85.1v-0.2c0-6.3,5-10.9,13.2-10.9c5.9,0,10.2,1.6,14,4.6l-4.7,6.7
		c-3.1-2.3-6.5-3.4-9.6-3.4c-2.3,0-3.4,1-3.4,2.1v0.2c0,1.6,1.1,2.3,5.9,3.3c7.8,1.6,12.7,4.2,12.7,10.6v0.2c0,7-5.5,11.1-13.8,11.1
		C178.5,109.3,172.8,107.4,168.5,103.6z"/>
</g>
</svg>
