<?xml version="1.0" encoding="utf-8"?>
<!-- Generator: Adobe Illustrator 27.3.1, SVG Export Plug-In . SVG Version: 6.00 Build 0)  -->
<svg version="1.1" id="Calque_1" xmlns="http://www.w3.org/2000/svg" xmlns:xlink="http://www.w3.org/1999/xlink" x="0px" y="0px"
	 viewBox="0 0 295 334.8" style="enable-background:new 0 0 295 334.8;" xml:space="preserve">
<style type="text/css">
	.st0{fill:#8EA5AF;}
	.st1{fill:#B9C8D0;}
	.st2{fill:#81989F;}
	.st3{fill:#E5E9EC;}
	.st4{fill:#45AC4E;}
	.st5{fill:#3C9443;}
	.st6{fill:#FFFFFF;}
</style>
<path class="st0" d="M245,53c0,13.1-10.9,25.1-29,34.4c-3,1.6-6.2,3-9.6,4.4c-16.8,6.8-38,11.6-61.5,13.4c-7,0.5-14.2,0.8-21.6,0.8
	c-19.6,0-38.2-2-54.6-5.6L174.2,4.9c1.2,0.2,2.3,0.4,3.5,0.7C217.6,14.3,245,32.2,245,53z"/>
<path class="st0" d="M174.2,4.8L68.6,100.4c-10.4-2.3-20-5.2-28.4-8.6c-3.4-1.4-6.6-2.9-9.6-4.4C12.5,78.1,1.5,66.1,1.5,53
	C1.5,23.7,56,0,123.3,0C141.5,0,158.7,1.7,174.2,4.8z"/>
<path class="st1" d="M1.9,126.1c-0.2-1.5-0.4-2.9-0.4-4.4V53c0,13.1,11,25.1,29.2,34.4c3,1.6,6.2,3,9.6,4.4
	c4.2,1.7,8.7,3.3,13.4,4.7s9.7,2.7,14.9,3.8v0.1c16.4,3.6,35,5.6,54.6,5.6c7.4,0,14.6-0.3,21.6-0.8c23.6-1.8,44.7-6.6,61.5-13.4
	c3.4-1.4,6.6-2.9,9.6-4.4c18.1-9.3,29-21.2,29-34.2v68.5c0,1.5-0.1,3-0.4,4.4c-2.5,13.3-16.3,25.2-37.1,33.9
	c-3.7,1.6-7.7,3-11.9,4.4c-20.2,6.5-45.2,10.4-72.3,10.4h-1.4c-19.1-0.1-37.2-2.1-53.2-5.6v-0.1c-6.2-1.3-12.1-2.9-17.7-4.7
	c-4.2-1.4-8.1-2.8-11.9-4.4C18.1,151.3,4.4,139.4,1.9,126.1z"/>
<path class="st1" d="M245.2,130.5v67.8c0,0.5-0.1,0.9-0.1,1.4c-0.1,1-0.2,2-0.4,3c-2.4,12.7-15,24.1-34.3,32.7
	c-1.4,0.6-2.7,1.1-4.1,1.7c-3,1.2-6.1,2.3-9.3,3.4c-12.4,4.1-26.7,7.2-42.2,9c-4,0.4-8.1,0.8-12.3,1.1c-6.2,0.5-12.7,0.7-19.2,0.7
	c-9,0-17.8-0.4-26.2-1.2c-10-1-19.5-2.5-28.4-4.4v-0.1c-10.4-2.3-19.9-5.2-28.3-8.6C18.8,228.3,4.6,216.2,2,202.6
	c-0.2-1.5-0.4-2.9-0.4-4.4v-67.7c0,12.9,10.6,24.7,28.1,33.9c2.9,1.6,6.1,3,9.4,4.4c8.7,3.6,18.7,6.7,29.6,9v0.1
	c15.2,3.3,32.2,5.3,50.3,5.6h4.3c32.7,0,62.3-5.6,84.2-14.7c3.3-1.4,6.5-2.9,9.4-4.4C234.5,155.2,245,143.4,245.2,130.5z"/>
<path class="st1" d="M178,323.2c-16.5,3.6-35.1,5.7-54.8,5.7c-18,0-35.2-1.7-50.6-4.8c-1.4-0.2-2.7-0.5-4-0.8v-0.1
	c-39.8-8.7-67.1-26.7-67.1-47.4V207c0,13.2,11,25.2,29.2,34.4c10.5,5.4,23.4,9.8,38,13v0.1c8.1,1.8,16.5,3.1,25.5,4.1
	c9.3,1,19,1.5,29,1.5c6.5,0,12.8-0.2,18.9-0.6c0.1,5.6,0.8,11.1,2,16.4C148.8,295.8,161.2,312.7,178,323.2z"/>
<g id="XMLID_1_">
	<path id="XMLID_8_" class="st2" d="M244.6,126.1c-2.5,13.3-16.2,25.2-37.1,33.9c-3.8,1.6-7.7,3-11.9,4.4
		c-20.2,6.5-45.2,10.4-72.3,10.4c-0.5,0-0.9,0-1.4,0c-19.1-0.1-37.2-2.1-53.2-5.6c-6.2-1.4-12.1-2.9-17.7-4.7
		c-4.2-1.4-8.2-2.8-11.9-4.4c-20.9-8.8-34.6-20.7-37.1-34c-0.3-1.4-0.4-2.9-0.4-4.4v8.8c0,12.9,10.6,24.7,28.1,33.9
		c2.9,1.5,6.1,3,9.4,4.4c8.7,3.6,18.7,6.7,29.6,9.1c15.2,3.3,32.3,5.3,50.3,5.6c1.4,0,2.8,0,4.3,0c32.7,0,62.3-5.6,84.2-14.7
		c3.3-1.4,6.5-2.8,9.4-4.4c17.5-9.2,28.1-21,28.1-33.9v-8.8C245,123.2,244.9,124.7,244.6,126.1z"/>
	<path id="XMLID_19_" class="st2" d="M244.6,202.6c-2.4,12.7-15,24.1-34.3,32.7c-1.3,0.6-2.7,1.2-4.1,1.7c-3,1.2-6,2.3-9.3,3.4
		c-12.4,4.1-26.7,7.2-42.2,9c-4,0.5-8.1,0.8-12.3,1.1c-6.3,0.4-12.7,0.7-19.2,0.7c-9,0-17.8-0.4-26.2-1.2c-10-1-19.5-2.4-28.4-4.4
		c-10.4-2.3-19.9-5.2-28.3-8.6C18.8,228.3,4.5,216.2,2,202.6c-0.3-1.4-0.4-2.9-0.4-4.4v8.8c0,13.1,11,25.1,29.2,34.4
		c10.5,5.3,23.4,9.8,38,13c8.1,1.8,16.6,3.1,25.6,4.1c9.3,1,19,1.5,29,1.5c6.4,0,12.7-0.2,18.9-0.6c4.1-0.3,8.1-0.6,12-1.1
		c15.7-1.8,30.2-4.9,42.8-9.1c6.9-2.3,13.3-4.9,18.9-7.8c0.9-0.5,1.8-1,2.7-1.4c16.5-9,26.4-20.5,26.4-33v-7.3v-1.4
		c0,0.5-0.1,0.9-0.1,1.4C244.9,200.7,244.8,201.7,244.6,202.6z"/>
</g>
<circle id="XMLID_85_" class="st3" cx="218.5" cy="258.3" r="76.4"/>
<path class="st4" d="M154,260.2v-1.9c0-35.6,28.8-64.4,64.4-64.4c35.6,0,64.4,28.8,64.4,64.4v1.9c-1,34.7-29.4,62.5-64.3,62.5
	S155,294.9,154,260.2"/>
<polygon id="XMLID_67_" class="st5" points="251.4,261.5 196.9,231 196.9,256 196.9,267.1 196.9,292 251.4,261.5 "/>
<polygon id="XMLID_58_" class="st6" points="251.4,258.3 196.9,227.8 196.9,252.8 196.9,263.9 196.9,288.9 251.4,258.3 "/>
</svg>
