<?xml version="1.0" encoding="utf-8"?>
<!-- Generator: Adobe Illustrator 27.3.1, SVG Export Plug-In . SVG Version: 6.00 Build 0)  -->
<svg version="1.1" id="Calque_2_00000047049165388304339350000014089664642162793903_"
	 xmlns="http://www.w3.org/2000/svg" xmlns:xlink="http://www.w3.org/1999/xlink" x="0px" y="0px" viewBox="0 0 512 512"
	 style="enable-background:new 0 0 512 512;" xml:space="preserve">
<style type="text/css">
	.st0{fill:#336791;}
	.st1{fill:#FFFFFF;}
</style>
<path class="st0" d="M471.4,318c-4,3.7-10.8,8.7-20.4,13.2c-8.3,3.8-22.1,6.7-35.3,7.3c-14.5,0.7-22-1.6-23.7-3
	c-0.3-5.7,0.2-9.6,1.3-12.5c0.7,0,1.4,0.1,2,0.2c-0.5-0.5-1-1-1.4-1.5c2.2-4.4,6.1-5.5,10.1-6.6l3-0.9c0.6,0.5,1.3,1,2,1.5
	c11.7,7.7,32.5,8.5,62,2.5C471.2,318.1,471.3,318.1,471.4,318z"/>
<path class="st0" d="M247.9,334c-0.2,0.7-0.6,1.3-1,2c-18.3,25.6-44.9,25.2-64,20.5c-3.9-1-7.5-2.7-9.6-4.1c1.7-0.8,4.8-1.9,10.2-3
	c25.9-5.3,29.9-9.1,38.7-20.2c2-2.5,4.3-5.4,7.4-9c2.7-3,4.6-4,6.4-4c1.3,0,2.7,0.5,4.3,1.2c2.4,1,4.7,3.5,6.2,6.5
	c0.5,1,0.9,2,1.2,3.1C248.2,328.7,248.8,331.4,247.9,334z"/>
<path class="st0" d="M192.8,46.8c-0.4,0.3-0.7,0.7-1.1,1c-3.6,3.7-6.9,7.5-9.9,11.6c-31,41.8-30,101.1-30,104.7v0.1
	c0,1.6,0.1,4,0.3,7.1c0.7,11.9,2,34-1.5,59c-2.9,21,2.6,41.5,15.3,57.4c1.4,1.7,2.8,3.4,4.4,5c1.6,1.7,3.3,3.3,5.1,4.8
	c-7,7.5-22.2,24.1-38.4,43.6c-11.5,13.8-19.4,11.1-22,10.3c-17-5.7-36.7-41.5-54-98.4c-15-49.2-23.8-98.7-24.5-112.6
	c-2.2-44,8.5-74.6,31.7-91C105.9,22.6,167.9,38.6,192.8,46.8z"/>
<path class="st0" d="M408.1,289.9c-0.6-0.7-1.1-1.4-1.7-2.2c-0.2-0.3-0.5-0.6-0.7-0.9c8.2-13.6,11-27.1,11.3-40.1c0-0.8,0-1.6,0-2.4
	c0-9.3-1-18.3-2-27c-1-8.7-2-17-1.8-24.7c0.3-8.2,1.3-15.2,2.4-22c1.3-8.4,2.6-17.1,2.2-27.3c0.2-0.7,0.3-1.5,0.3-2.3
	c0-0.5,0-1-0.1-1.5c-0.9-9.8-12.1-39.2-35-65.7c-8.5-9.9-19.6-20.6-33.7-29.9c-6.6-4.4-13.9-8.4-21.8-11.9
	c10.7-2.2,25.3-4.3,41.7-3.9c41.5,0.9,74.3,16.4,97.5,46.1C484.5,96.9,464.9,200.5,408.1,289.9z"/>
<path class="st0" d="M398.8,192.2c0.3-9.1,1.4-16.5,2.6-23.8c1-6.7,2-13.2,2.1-20.2c-16.9-2.1-36.4-1.6-44,9.3
	c-14.9,21.3,14.2,73.6,26.7,95.9c3.2,5.7,5.5,9.9,6.6,12.5c1.2,2.8,2.5,5.4,3.8,7.8c8.6-18.2,6.3-36.7,4.2-54.6
	C399.6,210.2,398.5,201,398.8,192.2z M390.2,158.3c0,1.7-1.2,3.9-3.1,5.9c-1.4,1.5-4.3,4-8.2,4.5c-0.5,0.1-1,0.1-1.5,0.1
	c-5.9,0-10.9-4.7-11.3-7.5c-0.5-3.6,5.3-6.3,11.3-7.1s12.4,0.2,12.8,3.7V158.3z"/>
<path class="st0" d="M395.2,296.7c1.4,1.8,2.8,3.5,3.8,5c-3.4,1-8,2.5-12,6c-4.1,3.5-7.6,9-8.9,17.9c-0.4,3.2-0.6,6.7-0.4,10.8
	c-0.2,2.8-0.8,7.7-1.4,13.9c-0.7,6.2-1.5,13.7-2.5,21.8c0,0.2,0,0.3-0.1,0.5c-2.8,22.9-6.3,49.9-8.5,63c-5.1,29.6-16,40.6-46.6,47.2
	c-31.7,6.8-43-9.4-50.4-27.9c-4.7-11.8-7.1-64.7-5.5-123.5v-1.9c0-0.8-0.1-1.6-0.3-2.3c-0.2-1.4-0.5-2.8-0.9-4.2
	c-2.5-8.6-8.4-15.8-15.6-18.8c-0.1,0-0.1,0-0.2-0.1c-2.9-1.2-8.2-3.4-14.5-1.8c1.4-5.6,3.7-11.9,6.3-18.7l1.1-2.9
	c1.2-3.2,2.7-6.6,4.3-10.1c1.9-4.3,4-8.9,5.9-14.2c6.7-18.3,11.6-44.4,1.7-90.4c-4.8-22.2-20.8-33-45.1-30.5
	c-14.6,1.5-27.9,7.4-34.5,10.8c-1.4,0.7-2.7,1.4-4,2.1c1.7-20.6,7.8-57.8,29.3-84.2c1.8-2.2,3.7-4.3,5.7-6.4
	c16.5-16.7,38.5-24.9,65.3-24.4c23.5,0.4,43.3,6,59.7,14.1c20.3,10,35.4,23.9,46,36.4c16.5,19.5,25.4,39,28.9,49.6
	c-26.7-2.7-44.9,2.6-54.2,15.8c-20.1,28.7,11,84.3,25.9,111.1c2.7,4.9,5.1,9.1,5.8,10.9c3.5,8.5,7.7,14.9,11.5,20
	C392.5,293.3,393.9,295,395.2,296.7z"/>
<path class="st0" d="M236.5,169.1c-2.3-10.6-7.8-16.7-16.8-18.8c-19.7-4.5-47.4,10.3-53.4,15.6c0,1.2,0.1,2.7,0.2,4.5
	c0.7,12.4,2.1,35.4-1.6,61.8c-2.3,16.3,1.7,32.3,11,44.9c1.5,2,3,3.9,4.8,5.7c10,10.4,23.1,16.2,36.6,16.2c1.5-6.4,4-13.1,6.7-20.3
	l0.6-1.6l0.5-1.2c1.4-3.7,3-7.2,4.7-11C238.1,246.5,248.3,223.8,236.5,169.1z M229.9,166.3c-0.5,3.6-6.2,8.5-12.5,8.5
	c-0.5,0-1.1,0-1.6-0.1c-3.8-0.5-7.6-2.9-10.2-6.4c-0.9-1.2-2.4-3.6-2.1-5.8c0.1-0.8,0.5-2,1.9-3c2.4-1.8,7.1-2.5,12.3-1.8
	c3.2,0.4,6.2,1.4,8.4,2.6C229.8,162.6,230.1,165,229.9,166.3z"/>
<path d="M503.3,306.7c-1.7-5.2-9.5-21.7-37.6-15.9c-11.3,2.3-19.6,3.2-25.7,3.4c23-38.9,41.7-83.2,52.5-124.9
	c9.6-37.2,16.9-86.9-2.8-112.1C460.9,20.4,418.9,0.6,368.2,0c-27-0.3-50.8,5-63.1,8.8c-11.5-2-23.9-3.2-36.9-3.4
	c-24.4-0.4-45.9,4.9-64.3,15.9c-10.2-3.5-26.5-8.3-45.4-11.4C114,2.6,78.2,8.3,52,26.8C20.3,49.2,5.6,88.1,8.3,142.5
	C9.2,159.7,18.8,212.2,34,262c8.7,28.6,18,52.4,27.7,70.6c13.7,25.9,28.3,41.1,44.7,46.6c9.2,3.1,25.9,5.2,43.4-9.4
	c6.4,7.7,16.6,12.6,26.5,15.1c22.1,5.5,42.7,4.1,60.3-3.6c0.1,3.1,0.2,6.1,0.3,8.7c0.1,4.2,0.2,8.3,0.4,12.2c1,26,2.8,46.2,8.1,60.4
	c0.3,0.8,0.7,2,1.1,3.2c2.6,8,7,21.4,18.1,31.9c7.4,7,19.6,14.2,38.2,14.2c5.4,0,11.3-0.6,17.9-2c19.1-4.1,40.8-10.3,56.5-32.7
	c14.8-21.1,22-52.9,23.3-103c0.2-1.4,0.3-2.8,0.5-4.1c0.1-0.9,0.2-1.8,0.3-2.6l3.5,0.3l0.9,0.1c19.5,0.9,43.2-3.2,57.8-10
	C475,352.6,512,333,503.3,306.7z M457,344.2c-11.6,5.4-30.1,8.8-46.1,8.8c-7.7,0-14.8-0.8-20.3-2.5c-2.6,24-8.2,68.8-11.4,87.5
	c-6.1,35.1-21.7,51-57.7,58.7c-6.1,1.3-11.7,1.9-16.8,1.9c-34.5,0-45.4-27.3-49.9-38.5c-5.5-13.7-7.4-58.5-7-103.9
	c-12.4,11.3-28,17.1-45.7,17.1c-7.3,0-14.9-1-22.8-3c-2.3-0.6-22.2-5.9-22-18.7c0.2-11.7,16.9-15.1,23.2-16.4
	c22-4.5,23.5-6.3,30.3-15c1.4-1.8,3-3.8,5-6.2c0-0.3,0-0.5-0.1-0.8c-9.9-0.3-19.5-2.9-28.4-7.6c-6,6.4-22.1,23.8-39.4,44.6
	c-10.4,12.5-20.4,16.2-28.6,16.2c-3.3,0-6.3-0.6-9-1.5c-22.4-7.5-43.7-43.7-63.2-107.8C32.5,208.4,23,157.6,22.2,141
	C19.8,91.9,32.4,57.1,59.9,37.7c49.1-34.8,128.5-8.1,145.9-1.6c17.1-11.7,37.7-17.3,61.7-17c13,0.2,25,1.9,36,4.6
	c5.1-2.3,31.1-10.1,62.2-10.1c0.6,0,1.2,0,1.7,0C413.7,14.1,451.9,32,478,65.3c17.6,22.5,6,77.2,0.2,99.7
	c-12.1,46.8-34.5,96.9-61.7,138.3c4.1,3,16.7,8,51.6,0.8c11.8-2.4,18.9-0.3,21.1,6.4C493.5,323.3,470,338.2,457,344.2z"/>
<path class="st1" d="M489.2,310.5c-2.2-6.7-9.3-8.8-21.1-6.4c-34.9,7.2-47.5,2.2-51.6-0.8c27.2-41.4,49.6-91.5,61.7-138.3
	c5.8-22.5,17.4-77.2-0.2-99.7C451.9,32,413.7,14.1,367.4,13.6c-0.6,0-1.2,0-1.7,0c-31,0-57.1,7.8-62.2,10.1c-11-2.7-23-4.4-36-4.6
	c-24-0.3-44.6,5.3-61.7,17C188.4,29.6,109,2.9,59.9,37.7C32.4,57.1,19.8,91.9,22.2,141c0.8,16.6,10.3,67.4,24.9,116.1
	c19.5,64.1,40.8,100.3,63.2,107.8c2.7,0.9,5.7,1.5,9,1.5c8.2,0,18.2-3.7,28.6-16.2c17.3-20.8,33.4-38.2,39.4-44.6
	c8.9,4.7,18.5,7.3,28.4,7.6c0.1,0.3,0.1,0.5,0.1,0.8c-2,2.4-3.6,4.4-5,6.2c-6.8,8.7-8.3,10.5-30.3,15c-6.3,1.3-23,4.7-23.2,16.4
	c-0.2,12.8,19.7,18.1,22,18.7c7.9,2,15.5,3,22.8,3c17.7,0,33.3-5.8,45.7-17.1c-0.4,45.4,1.5,90.2,7,103.9
	c4.5,11.2,15.4,38.5,49.9,38.5c5.1,0,10.7-0.6,16.8-1.9c36-7.7,51.6-23.6,57.7-58.7c3.2-18.7,8.8-63.5,11.4-87.5
	c5.5,1.7,12.6,2.5,20.3,2.5c16,0,34.5-3.4,46.1-8.8C470,338.2,493.5,323.3,489.2,310.5z M369.2,28.1c41.5,0.9,74.3,16.4,97.5,46.1
	c17.8,22.7-1.8,126.3-58.6,215.7c-0.6-0.7-1.1-1.4-1.7-2.2c-0.2-0.3-0.5-0.6-0.7-0.9c8.2-13.6,11-27.1,11.3-40.1c0-0.8,0-1.6,0-2.4
	c0-9.3-1-18.3-2-27c-1-8.7-2-17-1.8-24.7c0.3-8.2,1.3-15.2,2.4-22c1.3-8.4,2.6-17.1,2.2-27.3c0.2-0.7,0.3-1.5,0.3-2.3
	c0-0.5,0-1-0.1-1.5c-0.9-9.8-12.1-39.2-35-65.7c-8.5-9.9-19.6-20.6-33.7-29.9c-6.6-4.4-13.9-8.4-21.8-11.9
	C338.2,29.8,352.8,27.7,369.2,28.1z M400.8,219.1c2.1,17.9,4.4,36.4-4.2,54.6c-1.3-2.4-2.6-5-3.8-7.8c-1.1-2.6-3.4-6.8-6.6-12.5
	c-12.5-22.3-41.6-74.6-26.7-95.9c7.6-10.9,27.1-11.4,44-9.3c-0.1,7-1.1,13.5-2.1,20.2c-1.2,7.3-2.3,14.7-2.6,23.8
	C398.5,201,399.6,210.2,400.8,219.1z M137,341.1c-11.5,13.8-19.4,11.1-22,10.3c-17-5.7-36.7-41.5-54-98.4
	c-15-49.2-23.8-98.7-24.5-112.6c-2.2-44,8.5-74.6,31.7-91c37.7-26.8,99.7-10.8,124.6-2.6c-0.4,0.3-0.7,0.7-1.1,1
	c-3.6,3.7-6.9,7.5-9.9,11.6c-31,41.8-30,101.1-30,104.7v0.1c0,1.6,0.1,4,0.3,7.1c0.7,11.9,2,34-1.5,59c-2.9,21,2.6,41.5,15.3,57.4
	c1.4,1.7,2.8,3.4,4.4,5c1.6,1.7,3.3,3.3,5.1,4.8C168.4,305,153.2,321.6,137,341.1z M180.7,282.8c-1.8-1.8-3.3-3.7-4.8-5.7
	c-9.3-12.6-13.3-28.6-11-44.9c3.7-26.4,2.3-49.4,1.6-61.8c-0.1-1.8-0.2-3.3-0.2-4.5c6-5.3,33.7-20.1,53.4-15.6
	c9,2.1,14.5,8.2,16.8,18.8c11.8,54.7,1.6,77.4-6.7,95.8c-1.7,3.8-3.3,7.3-4.7,11l-0.5,1.2l-0.6,1.6c-2.7,7.2-5.2,13.9-6.7,20.3
	C203.8,299,190.7,293.2,180.7,282.8z M247.9,334c-0.2,0.7-0.6,1.3-1,2c-18.3,25.6-44.9,25.2-64,20.5c-3.9-1-7.5-2.7-9.6-4.1
	c1.7-0.8,4.8-1.9,10.2-3c25.9-5.3,29.9-9.1,38.7-20.2c2-2.5,4.3-5.4,7.4-9c2.7-3,4.6-4,6.4-4c1.3,0,2.7,0.5,4.3,1.2
	c2.4,1,4.7,3.5,6.2,6.5c0.5,1,0.9,2,1.2,3.1C248.2,328.7,248.8,331.4,247.9,334z M387,307.7c-4.1,3.5-7.6,9-8.9,17.9
	c-0.4,3.2-0.6,6.7-0.4,10.8c-0.2,2.8-0.8,7.7-1.4,13.9c-0.7,6.2-1.5,13.7-2.5,21.8c0,0.2,0,0.3-0.1,0.5c-2.8,22.9-6.3,49.9-8.5,63
	c-5.1,29.6-16,40.6-46.6,47.2c-31.7,6.8-43-9.4-50.4-27.9c-4.7-11.8-7.1-64.7-5.5-123.5v-1.9c0-0.8-0.1-1.6-0.3-2.3
	c-0.2-1.4-0.5-2.8-0.9-4.2c-2.5-8.6-8.4-15.8-15.6-18.8c-0.1,0-0.1,0-0.2-0.1c-2.9-1.2-8.2-3.4-14.5-1.8c1.4-5.6,3.7-11.9,6.3-18.7
	l1.1-2.9c1.2-3.2,2.7-6.6,4.3-10.1c1.9-4.3,4-8.9,5.9-14.2c6.7-18.3,11.6-44.4,1.7-90.4c-4.8-22.2-20.8-33-45.1-30.5
	c-14.6,1.5-27.9,7.4-34.5,10.8c-1.4,0.7-2.7,1.4-4,2.1c1.7-20.6,7.8-57.8,29.3-84.2c1.8-2.2,3.7-4.3,5.7-6.4
	c16.5-16.7,38.5-24.9,65.3-24.4c23.5,0.4,43.3,6,59.7,14.1c20.3,10,35.4,23.9,46,36.4c16.5,19.5,25.4,39,28.9,49.6
	c-26.7-2.7-44.9,2.6-54.2,15.8c-20.1,28.7,11,84.3,25.9,111.1c2.7,4.9,5.1,9.1,5.8,10.9c3.5,8.5,7.7,14.9,11.5,20
	c1.7,2,3.1,3.7,4.4,5.4c1.4,1.8,2.8,3.5,3.8,5C395.6,302.7,391,304.2,387,307.7z M451,331.2c-8.3,3.8-22.1,6.7-35.3,7.3
	c-14.5,0.7-22-1.6-23.7-3c-0.3-5.7,0.2-9.6,1.3-12.5c0.7,0,1.4,0.1,2,0.2c-0.5-0.5-1-1-1.4-1.5c2.2-4.4,6.1-5.5,10.1-6.6l3-0.9
	c0.6,0.5,1.3,1,2,1.5c11.7,7.7,32.5,8.5,62,2.5c0.2-0.1,0.3-0.1,0.4-0.2C467.4,321.7,460.6,326.7,451,331.2z"/>
<path class="st1" d="M390.2,157.9v0.4c0,1.7-1.2,3.9-3.1,5.9c-1.4,1.5-4.3,4-8.2,4.5c-0.5,0.1-1,0.1-1.5,0.1
	c-5.9,0-10.9-4.7-11.3-7.5c-0.5-3.6,5.3-6.3,11.3-7.1S389.8,154.4,390.2,157.9z"/>
<path class="st1" d="M229.9,166.3c-0.5,3.6-6.2,8.5-12.5,8.5c-0.5,0-1.1,0-1.6-0.1c-3.8-0.5-7.6-2.9-10.2-6.4
	c-0.9-1.2-2.4-3.6-2.1-5.8c0.1-0.8,0.5-2,1.9-3c2.4-1.8,7.1-2.5,12.3-1.8c3.2,0.4,6.2,1.4,8.4,2.6
	C229.8,162.6,230.1,165,229.9,166.3z"/>
</svg>
