<?xml version="1.0" encoding="utf-8"?>
<!-- Generator: Adobe Illustrator 27.3.1, SVG Export Plug-In . SVG Version: 6.00 Build 0)  -->
<svg version="1.1"
	 id="svg2985" xmlns:dc="http://purl.org/dc/elements/1.1/" xmlns:inkscape="http://www.inkscape.org/namespaces/inkscape" xmlns:rdf="http://www.w3.org/1999/02/22-rdf-syntax-ns#" xmlns:svg="http://www.w3.org/2000/svg" xmlns:cc="http://creativecommons.org/ns#" xmlns:sodipodi="http://sodipodi.sourceforge.net/DTD/sodipodi-0.dtd" inkscape:version="0.48.4 r9939"
	 xmlns="http://www.w3.org/2000/svg" xmlns:xlink="http://www.w3.org/1999/xlink" x="0px" y="0px" viewBox="0 0 256 256"
	 style="enable-background:new 0 0 256 256;" xml:space="preserve">
<style type="text/css">
	.st0{fill:#0F80CC;}
	.st1{fill:#003B57;}
</style>
<sodipodi:namedview  bordercolor="#666666" borderopacity="1" fit-margin-bottom="10" fit-margin-left="10" fit-margin-right="10" fit-margin-top="10" gridtolerance="10" guidetolerance="10" id="namedview2987" inkscape:current-layer="g2993" inkscape:cx="217.03271" inkscape:cy="157.19018" inkscape:pageopacity="0" inkscape:pageshadow="2" inkscape:snap-bbox="true" inkscape:snap-page="true" inkscape:window-height="1017" inkscape:window-maximized="1" inkscape:window-width="1920" inkscape:window-x="-8" inkscape:window-y="-8" inkscape:zoom="0.73710525" objecttolerance="10" pagecolor="#ffffff" showgrid="false">
	</sodipodi:namedview>
<path id="path3005" inkscape:connector-curvature="0" class="st0" d="M137.9,195.6c-0.1-1.4-0.2-2.3-0.2-2.3s-4.2-28.6-9.3-37.2
	c-0.8-1.4,0.1-6.9,2.3-15.1c1.3,2.3,6.8,11.9,7.9,15c1.2,3.5,1.5,4.5,1.5,4.5s-3-15.5-8-24.6c1.1-3.7,2.4-7.7,3.9-12
	c1.9,3.3,6.4,11.3,7.4,14c0.2,0.6,0.4,1.1,0.5,1.5c0-0.3,0.1-0.5,0.1-0.8c-1.1-4.8-3.4-13.2-6.4-19.4c6.8-35.2,29.8-82.3,53.5-103.3
	H36.8C26.5,15.9,18,24.4,18,34.7V205c0,10.3,8.5,18.8,18.8,18.8h101.7C137.8,214.9,137.5,205.1,137.9,195.6"/>
<path id="path3045" inkscape:connector-curvature="0" class="st1" d="M227.2,10.3c-10.6-9.4-23.4-5.6-36,5.6
	c-1.9,1.7-3.7,3.5-5.6,5.5c-21.6,22.9-41.7,65.4-47.9,97.8c2.4,4.9,4.3,11.2,5.6,16c0.3,1.2,0.6,2.4,0.8,3.4
	c0.5,2.3,0.8,3.8,0.8,3.8s-0.2-0.7-1-3c-0.2-0.4-0.3-0.9-0.5-1.5c-0.1-0.2-0.2-0.5-0.3-0.8c-1.4-3.3-5.3-10.2-7-13.2
	c-1.5,4.3-2.8,8.4-3.9,12c5,9.1,8,24.6,8,24.6s-0.3-1-1.5-4.5c-1.1-3.1-6.6-12.8-7.9-15c-2.2,8.2-3.1,13.8-2.3,15.1
	c1.6,2.6,3,7.1,4.3,12.2c2.9,11.3,5,25,5,25s0.1,0.9,0.2,2.3c-0.4,9.5-0.2,19.3,0.6,28.2c1,11.7,2.8,21.8,5.1,27.2l1.6-0.9
	c-3.4-10.6-4.8-24.6-4.2-40.7c0.9-24.6,6.6-54.2,17-85.1c17.7-46.6,42.2-84.1,64.6-101.9c-20.4,18.5-48.1,78.2-56.4,100.3
	c-9.3,24.8-15.8,48-19.8,70.3c6.8-20.9,28.9-29.9,28.9-29.9s10.8-13.4,23.5-32.4c-7.6,1.7-20,4.7-24.2,6.4c-6.2,2.6-7.8,3.5-7.8,3.5
	s19.9-12.1,37-17.6C227.4,86,253,33.4,227.2,10.3"/>
</svg>
