<?xml version="1.0" encoding="utf-8"?>
<!-- Generator: Adobe Illustrator 27.3.1, SVG Export Plug-In . SVG Version: 6.00 Build 0)  -->
<svg version="1.1" id="Capa_1" xmlns="http://www.w3.org/2000/svg" xmlns:xlink="http://www.w3.org/1999/xlink" x="0px" y="0px"
	 viewBox="0 0 512 512" style="enable-background:new 0 0 512 512;" xml:space="preserve">
<style type="text/css">
	.st0{fill:#962C87;}
	.st1{enable-background:new    ;}
	.st2{fill:#FFFFFF;}
</style>
<g>
	<path class="st0" d="M483.8,361.5c0,8.4-1.8,15.9-5.3,22.3c-3.7,6.6-9.2,12.1-16.7,16.5c-60.6,35-121.4,69.8-182,104.8
		c-16.3,9.4-32.2,9.1-48.4-0.5c-24.1-14.2-145-83.5-181-104.3c-7.5-4.4-13.1-9.9-16.7-16.5c-3.6-6.4-5.3-13.9-5.3-22.3
		c0-70.3,0-140.6,0-211c0-17.1,7.2-30.2,22-38.8c36-20.9,156.9-90.1,181-104.3c16.2-9.6,32.1-9.9,48.4-0.5
		c60.6,35,121.3,69.9,182,104.8c7.3,4.2,12.8,9.6,16.5,16c3.7,6.5,5.6,14.1,5.6,22.8C483.8,220.8,483.8,361.5,483.8,361.5z"/>
	<g class="st1">
		<path class="st2" d="M207.9,227.6c-3.1,10.8-6,22-8.8,33.4c-2.8,11.5-5.4,23.1-8.1,34.8c-2.6,11.7-5.3,23.1-8.1,34.1l-34.2,0.8
			c-2.5-12.2-5.2-24.4-8.2-36.7c-2.9-12.3-5.8-24.5-8.6-36.7c-2.8,12.2-5.6,24.4-8.7,36.7c-3,12.3-5.7,24.5-8.1,36.7L81.2,330
			c-2.8-11-5.4-22.4-8.1-34.1c-2.6-11.7-5.3-23.3-8.1-34.8c-2.8-11.5-5.7-22.6-8.8-33.4c-3.1-10.8-6.4-20.7-9.9-29.8l34.4-9.2
			c2.5,9.8,4.6,18.5,6.2,25.9s3.1,14.5,4.3,21.2c1.2,6.8,2.5,13.7,3.7,20.7c1.2,7.1,2.7,15.1,4.4,24.2c1.7-8.7,3.4-16.5,5.1-23.7
			c1.7-7.1,3.4-14.2,5-21c1.6-6.9,3.2-13.9,4.7-21.1c1.5-7.2,2.9-15.3,4.2-24.2h27.1c1.7,10.6,3.4,20.1,5.1,28.3
			c1.7,8.3,3.4,15.9,5,22.8c1.6,7,3.2,13.5,4.7,19.8c1.5,6.2,2.9,12.6,4.2,19.2c1.7-9,3.2-17.1,4.4-24.2s2.5-14,3.7-20.7
			c1.2-6.8,2.7-13.8,4.3-21.2s3.7-16,6.2-25.9l34.4,9.2C214.3,206.9,211,216.8,207.9,227.6z"/>
		<path class="st2" d="M270.4,190.6c4.5-0.1,9.3-0.2,14.5-0.3s11.2,0,18.2,0.3c5.9,0.3,11.4,1.2,16.4,2.9c5,1.6,9.4,4.2,13.2,7.8
			c3.7,3.5,6.7,8.1,8.8,13.8c2.1,5.6,3.1,12.5,3.1,20.6c0,7.2-1.1,13.3-3.3,18.4c-2.2,5-5.2,9.2-9,12.6c-3.8,3.3-8.3,6-13.6,7.9
			c-5.2,1.9-11,3.3-17.3,4.2c-5.1,0.8-10.3,1.4-15.5,1.9s-10.4,0.8-15.5,0.9c-0.1,8.1-0.1,16.1,0.1,24s0.4,15.9,0.7,24.2l-41.3,0.2
			c1-8,2-15.5,2.9-22.5s1.6-13.9,2.3-20.6c0.7-6.8,1.1-13.6,1.5-20.5c0.3-6.9,0.5-14.2,0.5-21.8c0-7.7-0.3-15.9-0.8-24.7
			s-1.2-18.5-2.2-29.1h36.3V190.6z M272.5,220.6c-0.8,11.8-1.4,23-1.8,33.6c7.2,0.7,14.8,0.2,22.8-1.4c5.6-1,9.6-2.9,12-5.6
			c2.4-2.7,3.4-6.9,3.1-12.7c-0.1-3.1-0.6-5.7-1.5-7.7s-2-3.5-3.5-4.6s-3.3-1.9-5.5-2.4s-4.6-0.8-7.4-0.9
			C284.4,218.9,278.3,219.5,272.5,220.6z"/>
		<path class="st2" d="M361.4,330c2.1-15.5,3.5-29.3,4.2-41.6c0.7-12.3,1-23.7,0.9-34.4c-0.1-10.7-0.5-21-1.2-31s-1.3-20.5-2-31.5
			c3.5,0.5,7.9,0.9,13,1.1c5.1,0.2,10.6,0.3,16.4,0.4c5.8,0.1,11.9,0,18.2-0.3c6.3-0.3,12.5-0.6,18.6-1s11.9-0.9,17.5-1.6
			c5.6-0.7,10.5-1.4,14.8-2.2c-0.5,2.2-1,5-1.4,8.4s-0.8,6.8-1.1,10.3c-0.3,3.5-0.6,6.9-0.8,10.1c-0.2,3.2-0.4,5.8-0.5,7.8
			c-2.5-0.5-5.8-1-10-1.4s-8.7-0.7-13.6-0.9s-9.7-0.3-14.6-0.2s-9.3,0.2-13.3,0.5c-0.8,4.5-1.5,8.6-2.1,12.5s-1.1,7.9-1.5,12.1
			c5.5,0.3,11.1,0.4,16.8,0.3c5.7-0.1,11.1-0.2,16.3-0.5c5.2-0.3,9.9-0.7,14.2-1.2c4.3-0.5,7.7-1.2,10.3-2c-0.1,2.1-0.3,4.7-0.5,7.7
			s-0.4,6.1-0.7,9.3c-0.3,3.2-0.6,6.4-0.9,9.4c-0.3,3.1-0.7,5.7-1.1,8c-2.8-0.4-6.2-0.8-10.3-1.1c-4.1-0.3-8.6-0.6-13.5-0.9
			s-10-0.5-15.3-0.6c-5.4-0.1-10.7-0.1-15.9,0c0.3,6.7,0.7,14.4,1.2,23.1s1.3,19.1,2.4,31.2h-44.5V330z"/>
	</g>
</g>
</svg>
